<svg width="164" height="158" viewBox="0 0 164 158" fill="none" xmlns="http://www.w3.org/2000/svg">
<path d="M54.9318 9.10298C48.257 11.1618 45.5134 13.2514 36.7456 19.7408C24.4072 26.3132 16.7218 33.5666 10.0131 45.161C9.2247 46.5236 8.19675 47.9794 7.59108 49.4101C7.02852 50.739 7.29132 52.1887 6.54286 53.4916C5.01568 56.1501 3.33077 58.5921 2.8805 61.6876C2.57864 63.7628 1.24832 65.4712 1.0961 67.6013L0.757643 72.3376C0.552579 75.2072 -0.0682964 78.2908 0.5839 81.1212C1.7587 86.2196 0.301519 91.3076 0.951619 96.4439C1.75693 102.806 1.37864 109.793 4.72999 115.562C5.69194 117.218 6.11869 119.131 7.18621 120.716C8.22753 122.262 9.87082 123.329 10.8722 124.894C12.8578 127.997 15.2088 130.47 18.1747 132.81C20.5405 134.678 23.0637 137.287 25.6951 138.737C29.5059 140.836 33.509 142.637 37.2636 144.831C44.2234 148.899 52.1201 152.855 60.0631 155.039C66.5916 156.834 73.2044 157.186 79.9492 157.668C82.4201 157.845 84.9287 157.449 87.3945 157.234C90.2412 156.985 92.707 155.143 95.4324 154.86C97.1804 154.679 98.9357 152.378 100.619 151.799C101.993 151.327 103.711 150.206 104.861 149.251C108.963 145.847 114.501 143.813 118.883 140.78C123.541 137.557 128.785 135.409 133.557 132.356C136.713 130.337 140.776 129.456 143.711 127.186C146.637 124.923 148.941 122.38 151.357 119.709C153.159 117.718 153.878 115.574 155.1 113.211C155.933 111.6 156.88 110.061 157.761 108.447C160.634 103.183 163.188 98.8472 163.624 92.7479C163.851 89.5694 163.459 86.3696 163.171 83.1946C163.08 82.1831 163.272 81.0878 163.115 80.0975C162.906 78.7727 162.098 77.7816 162.097 76.3516C162.095 72.7863 162.561 68.022 160.41 65.0186C156.186 59.1211 152.915 52.7839 149.946 46.2921C148.539 43.215 147.048 40.2521 146.38 36.903C146.057 35.2803 145.072 33.5636 143.611 32.5971C140.426 30.489 137.292 27.6323 134.672 24.9988C133.03 23.3479 130.92 21.6226 129.01 20.2445C126.401 18.362 124.451 15.9268 122.056 13.803C119.186 11.2587 116.382 9.42321 112.738 7.9659C108.037 6.0854 103.063 3.48612 98.1144 2.2812C93.1916 1.08249 88.6013 0.701127 83.5375 0.877062C79.0669 1.03239 74.7345 2.66667 70.416 3.10499C64.6979 3.68536 60.1887 7.48152 54.9318 9.10298Z" fill="#FDFF0A"/>
</svg>
