<svg width="142" height="142" viewBox="0 0 142 142" fill="none" xmlns="http://www.w3.org/2000/svg">
<path d="M66.34 32.4231C67.0696 27.2124 74.597 27.2124 75.3266 32.4231V32.4231C75.905 36.5539 81.2818 37.7811 83.5953 34.3103V34.3103C86.5134 29.9323 93.2953 33.1983 91.6919 38.2095V38.2095C90.4207 42.1821 94.7326 45.6207 98.3228 43.4974V43.4974C102.852 40.8191 107.545 46.7042 103.926 50.5234V50.5234C101.057 53.5512 103.45 58.5201 107.606 58.1648V58.1648C112.848 57.7166 114.523 65.0553 109.605 66.9261V66.9261C105.707 68.4092 105.707 73.9243 109.605 75.4073V75.4073C114.523 77.2781 112.848 84.6168 107.606 84.1686V84.1686C103.45 83.8133 101.057 88.7823 103.926 91.81V91.81C107.545 95.6292 102.852 101.514 98.3228 98.836V98.836C94.7326 96.7127 90.4207 100.151 91.6919 104.124V104.124C93.2953 109.135 86.5134 112.401 83.5953 108.023V108.023C81.2818 104.552 75.905 105.78 75.3266 109.91V109.91C74.597 115.121 67.0696 115.121 66.34 109.91V109.91C65.7616 105.78 60.3848 104.552 58.0714 108.023V108.023C55.1533 112.401 48.3713 109.135 49.9748 104.124V104.124C51.2459 100.151 46.9341 96.7127 43.3439 98.836V98.836C38.8151 101.514 34.1219 95.6292 37.7408 91.81V91.81C40.6098 88.7823 38.2169 83.8133 34.0609 84.1686V84.1686C28.8186 84.6168 27.1436 77.2781 32.0612 75.4073V75.4073C35.9597 73.9243 35.9597 68.4092 32.0612 66.9261V66.9261C27.1436 65.0553 28.8186 57.7166 34.0609 58.1648V58.1648C38.2169 58.5201 40.6098 53.5512 37.7408 50.5234V50.5234C34.1219 46.7042 38.8151 40.8191 43.3439 43.4974V43.4974C46.9341 45.6207 51.2459 42.1821 49.9748 38.2095V38.2095C48.3713 33.1983 55.1533 29.9323 58.0714 34.3103V34.3103C60.3848 37.7811 65.7616 36.5539 66.34 32.4231V32.4231Z" fill="#06D75A"/>
<path d="M85.9975 47.6522C85.9529 47.2251 85.7508 46.8302 85.4309 46.5437C85.111 46.2572 84.6961 46.1001 84.2667 46.1025C82.5938 46.1025 80.312 46.395 78.2456 47.6522C76.1792 48.9094 74.46 51.3501 74.46 54.7522L74.46 74.3579C74.46 74.8165 74.6427 75.2565 74.967 75.5809C75.2914 75.9052 75.7317 76.0878 76.1908 76.0878L76.7675 76.0878L76.7675 93.387C76.7675 95.9126 78.8558 98 81.3826 98C83.9093 98 85.9976 95.9127 85.9976 93.387L85.9976 47.8324C86.0008 47.7724 86.0007 47.7118 85.9975 47.6522ZM82.5362 49.7605L82.5362 71.7987L82.5362 71.7983C82.5302 71.8825 82.5302 71.9667 82.5362 72.0509L82.5362 72.6276L77.9212 72.6275L77.9212 54.7517C77.9212 52.3876 78.7977 51.3681 80.0484 50.6069C80.7816 50.1608 81.6669 49.9171 82.5361 49.7599L82.5362 49.7605ZM82.5362 76.0879L82.5362 93.3871C82.5362 94.056 82.0517 94.5404 81.3825 94.5404C80.7133 94.5404 80.2288 94.056 80.2288 93.3871L80.2288 76.0879L82.5362 76.0879ZM70.9989 47.652C70.9667 47.0339 70.6069 46.4798 70.0556 46.1985C69.5039 45.9177 68.8443 45.9519 68.3248 46.2888C67.8056 46.6257 67.5054 47.214 67.5376 47.8321L67.5376 57.0585L65.2302 57.0585L65.2302 47.8321C65.2334 47.7721 65.2334 47.7116 65.2302 47.652C65.2088 47.191 65.0044 46.7582 64.6627 46.4484C64.3207 46.1389 63.8696 45.9785 63.4088 46.0023C62.9484 46.0265 62.5162 46.2328 62.2084 46.5765C61.9005 46.9198 61.7424 47.3715 61.7689 47.8321L61.7689 57.0585L59.4615 57.0585L59.4615 47.8321C59.4679 47.3691 59.2888 46.9227 58.9632 46.593C58.6381 46.263 58.1942 46.0776 57.731 46.0776C57.2678 46.0776 56.8239 46.263 56.4984 46.593C56.1732 46.9226 55.9937 47.3691 56.0002 47.8321L56.0002 59.9416C56.0002 61.8556 57.2043 63.5194 58.8843 64.2124L58.8843 93.3869C58.8843 95.9126 60.9726 97.9999 63.4994 97.9999C66.0262 97.9999 68.1144 95.9127 68.1144 93.3869L68.1144 64.2124C69.803 63.5234 70.9986 61.8616 70.9986 59.9416L70.9986 47.8321L70.999 47.8321C71.0022 47.7721 71.0021 47.7116 70.9989 47.652ZM67.3936 60.5186C67.2044 60.8752 66.841 61.0952 66.3839 61.0952C65.9247 61.0952 65.4849 61.2774 65.1601 61.6017C64.8357 61.9261 64.6534 62.3662 64.6534 62.8251L64.6534 93.387C64.6534 94.0559 64.1689 94.5403 63.4997 94.5403C62.8305 94.5403 62.346 94.0559 62.346 93.387L62.346 62.8251C62.346 62.3661 62.1633 61.9261 61.8389 61.6017C61.5142 61.2774 61.0743 61.0952 60.6151 61.0952C60.158 61.0952 59.7769 60.8752 59.5877 60.5186L67.3936 60.5186Z" fill="black"/>
</svg>
