<svg width="137" height="223" viewBox="0 0 137 223" fill="none" xmlns="http://www.w3.org/2000/svg">
<path d="M99.1874 94.6339C99.1979 94.6355 99.2086 94.6371 99.2195 94.6387C99.3357 94.6561 99.4984 94.6754 99.6919 94.6983C100.171 94.755 100.838 94.834 101.454 94.9615C103.403 95.3653 105.791 96.3751 107.638 99.3651L107.639 99.367C109.722 102.751 110.144 107.367 109.756 111.708C109.397 115.74 108.318 119.765 106.966 122.77L106.988 122.79L106.775 123.223C109.706 130.579 108.527 137.784 106.077 143.747C103.573 149.839 99.6996 154.752 97.2879 157.453C95.6901 159.247 95.4379 161.007 95.6106 163.393C97.0886 165.356 97.7886 168.012 97.688 171.016C97.6831 171.543 97.6789 172.059 97.6749 172.565C97.6485 175.849 97.6258 178.686 97.426 181.094C97.195 183.881 96.7174 186.27 95.611 188.257C93.3264 192.361 88.7201 194.158 80.5953 195.32L80.5686 195.324L80.5418 195.327L80.5138 195.33C80.4187 195.34 80.2551 195.357 80.0726 195.36C72.3716 195.714 66.754 195.387 62.9824 194.956C61.0941 194.74 59.6708 194.498 58.6826 194.303C58.1885 194.206 57.8055 194.121 57.5311 194.057C57.196 193.98 57.1392 193.964 57.1405 193.965L57.1205 193.961L57.1006 193.957L56.982 193.934C54.0493 193.363 50.2312 192.619 47.1797 190.431C43.9621 188.124 41.7594 184.352 41.7968 178.148C41.7966 178.147 41.7964 178.147 41.7962 178.147C41.7963 178.127 41.7967 178.103 41.7968 178.1L41.7969 178.096L41.797 178.092L41.7972 178.087L41.7972 178.087V178.086L41.7973 178.085L41.7973 178.084L41.7975 178.078L41.7978 178.067L41.7979 178.066L41.804 177.883L41.8315 177.066L41.9236 174.336C41.9923 172.299 42.0642 170.171 42.0668 170.103L42.0721 169.96L42.105 169.824C42.1049 169.824 42.1087 169.806 42.1155 169.759C42.1233 169.706 42.1319 169.637 42.1428 169.544C42.1472 169.507 42.1518 169.467 42.1568 169.423C42.1755 169.261 42.199 169.057 42.229 168.836C42.3065 168.265 42.4334 167.529 42.6839 166.701C43.1886 165.033 44.1849 163.024 46.2306 161.186L46.2365 161.181L46.2423 161.176C46.3241 161.104 46.4139 161.026 46.5108 160.945C46.5358 160.513 46.5775 160.08 46.6173 159.667L46.6197 159.642C46.6833 158.982 46.7444 158.349 46.7603 157.7C46.7919 156.408 46.64 155.139 45.9806 153.861C41.8332 145.836 39.0323 140.095 37.2101 135.606C37.1987 135.582 37.1891 135.56 37.1813 135.541C37.1789 135.535 37.1766 135.53 37.1744 135.524L37.0549 135.297V135.216C35.6293 131.645 34.8129 128.817 34.4394 126.184C34.0568 123.486 34.1485 121.057 34.4661 118.329C34.6481 116.766 34.901 115.114 35.1866 113.249C35.9002 108.589 36.8173 102.6 37.338 93.3504C37.4165 91.927 37.1797 90.524 36.6629 89.2782C25.3416 62.0234 25.9819 49.2122 29.0115 43.1046L99.1874 94.6339ZM99.1874 94.6339C99.3936 91.2466 98.3337 88.0886 96.04 85.7456C93.9669 83.6279 90.9882 82.2787 87.2911 81.944M99.1874 94.6339L87.2911 81.944M72.4277 124.096C71.9623 127.334 70.0462 132.41 63.5618 138.067L63.5612 138.068C62.948 138.602 62.2002 138.827 61.462 138.733C60.7589 138.643 60.1642 138.278 59.7529 137.813C59.3418 137.349 59.0505 136.712 59.0523 135.998C59.0541 135.249 59.3815 134.537 59.9948 134.002C65.0467 129.595 66.5495 125.901 66.9814 123.802C66.5423 123.767 66.0517 123.712 65.5935 123.594C65.1092 123.469 64.4863 123.232 64.0122 122.705C63.4842 122.118 63.3184 121.378 63.4076 120.632C63.5851 119.141 64.9467 118.096 66.4167 118.271M72.4277 124.096L68.5732 122.475C68.3216 122.454 68.063 122.439 67.8048 122.425C66.2195 122.334 64.652 122.245 64.8245 120.802C64.9072 120.103 65.5492 119.604 66.2484 119.688C75.2034 120.747 81.5736 119.945 85.2177 117.309L84.2531 116.257C84.2737 116.238 84.2941 116.219 84.3144 116.201M72.4277 124.096C72.9808 124.104 73.523 124.103 74.0547 124.093C74.4086 126.136 75.3141 128.257 76.6299 130.143C78.2574 132.476 80.5779 134.543 83.4364 135.677C87.6472 137.348 91.7152 136.641 95.3026 134.733C98.0643 133.263 100.576 131.069 102.749 128.636C102.989 129.941 103.162 131.732 102.987 133.923C102.597 138.797 100.468 145.773 93.2456 153.862L93.2359 153.873L93.2264 153.884L93.2155 153.896C93.1717 153.948 93.1124 154.017 93.0501 154.094L72.4277 124.096ZM66.4167 118.271C66.4169 118.271 66.4171 118.271 66.4173 118.271L66.2486 119.686L66.416 118.271C66.4163 118.271 66.4165 118.271 66.4167 118.271ZM66.4167 118.271C75.2588 119.317 81.1232 118.462 84.3144 116.201M84.3144 116.201C87.9578 112.808 88.0028 108.107 85.7219 104.36C83.4191 100.577 78.816 97.936 73.3992 98.9654L73.3986 98.9656C63.3381 100.873 55.7639 108.68 50.553 116.755C45.6637 124.332 43.0412 131.856 42.4729 134.194C45.6341 141.901 47.8655 145.943 49.3884 148.701C49.7321 149.324 50.0397 149.881 50.3137 150.4C51.084 151.859 51.6337 153.099 51.9165 154.636C52.1055 155.663 52.1682 156.783 52.1349 158.147M84.3144 116.201L52.1349 158.147M52.1349 158.147C52.6334 158.034 53.1574 157.954 53.7454 157.906C55.1086 157.795 56.7916 157.861 59.2642 158.032C60.5733 158.123 62.1222 158.246 63.9927 158.394C68.7273 158.768 75.5225 159.304 85.7055 159.907C85.1234 159.724 84.5786 159.524 84.0855 159.326C82.3854 158.643 81.1902 157.937 81.0179 157.834C79.7381 157.065 79.3227 155.402 80.1012 154.123C80.8771 152.847 82.5365 152.445 83.8117 153.207L83.8192 153.211L83.8202 153.212C83.8707 153.241 85.6678 154.291 87.7782 154.896C88.8517 155.204 89.913 155.369 90.822 155.284C91.7017 155.202 92.3613 154.897 92.8289 154.321L52.1349 158.147ZM87.2911 81.944C87.3582 81.6664 87.4131 81.4395 87.4325 81.3574L87.4326 81.3574C88.0846 78.6324 88.6958 76.0858 89.2674 73.7039C92.5463 60.0421 94.525 51.7978 95.4303 46.3614C95.9638 43.1582 96.1446 40.8239 95.9698 38.8705C95.7911 36.8737 95.2473 35.3444 94.4468 33.7494C92.9029 30.6679 90.6633 28.6914 88.0788 27.7524C85.5132 26.8202 82.7361 26.9563 80.1664 27.8576C75.0582 29.6493 70.5314 34.5422 69.5619 40.8848L69.5615 40.8875C68.676 46.7533 66.9212 57.677 65.3617 67.1474C64.5821 71.8819 63.8519 76.2492 63.3042 79.4361C63.0302 81.0305 62.8027 82.3248 62.6378 83.2206C62.6276 83.2758 62.6177 83.3292 62.6081 83.381C60.7006 83.2546 59.4614 83.2766 58.6469 83.3228C57.932 78.4307 56.4292 69.4554 53.9701 60.7985C52.6365 56.1037 51.0086 51.4548 49.0489 47.5858C47.1107 43.7593 44.7489 40.4937 41.8468 38.8204L41.8417 38.8175C39.7039 37.5966 37.2 37.2193 34.8445 37.9086C32.4714 38.603 30.3794 40.3414 29.0116 43.1043L87.2911 81.944ZM39.8442 125.6C42.5469 119.16 46.2688 112.672 50.9339 107.208C56.6444 100.519 63.8436 95.2797 72.3873 93.6599L72.3882 93.6597C73.7747 93.3978 75.1649 93.3196 76.5317 93.3944C77.8757 91.0123 79.2109 87.9079 80.2589 85.2457C80.8356 83.7808 81.3175 82.4704 81.657 81.5207C81.8266 81.046 81.9605 80.6621 82.0527 80.3947C82.0988 80.2611 82.1344 80.1566 82.1588 80.0845L82.1801 80.0217C86.6835 61.8014 89.0841 51.8434 90.072 45.8443C90.5657 42.8467 90.6887 40.9349 90.5745 39.525C90.4644 38.1666 90.1306 37.226 89.5997 36.1647L89.5996 36.1646C88.6819 34.3295 87.4275 33.3203 86.1027 32.8699C84.7553 32.4118 83.1973 32.4863 81.633 33.0772C78.4794 34.2685 75.5592 37.4703 74.9202 41.6992C74.2948 45.8513 72.5406 56.7578 70.9282 66.6334C70.1217 71.5734 69.35 76.2595 68.7718 79.7192C68.4828 81.4485 68.2417 82.8738 68.0687 83.8717C68.0603 83.9204 68.052 83.9681 68.0439 84.0148C68.9788 84.1692 69.9575 84.3523 70.9855 84.5714M39.8442 125.6L51.4731 87.8204M39.8442 125.6C39.4424 122.818 39.6412 120.318 40.1028 117.025C40.234 116.09 40.3864 115.092 40.5518 114.009C41.2613 109.363 42.2088 103.159 42.7364 93.6514M39.8442 125.6L42.7364 93.6514M70.9855 84.5714L70.6891 85.9622L70.9848 84.5713C70.985 84.5713 70.9852 84.5713 70.9855 84.5714ZM70.9855 84.5714C74.1772 85.2506 73.638 89.9131 70.4206 89.9131C70.3554 89.9131 70.3044 89.9085 70.2874 89.907C70.2696 89.9053 70.2544 89.9036 70.243 89.9022C70.2392 89.9017 70.2359 89.9013 70.2331 89.901C70.21 89.898 70.1907 89.895 70.1801 89.8933C70.1577 89.8897 70.1355 89.8858 70.119 89.8828C70.0841 89.8765 70.0391 89.868 69.9898 89.8586C69.8872 89.839 69.7483 89.8123 69.5691 89.7787C69.2129 89.7117 68.7064 89.6189 68.088 89.5153C66.8491 89.3076 65.1684 89.0577 63.3566 88.8851C61.5391 88.712 59.6224 88.62 57.9031 88.7177C56.1455 88.8176 54.7624 89.1084 53.897 89.582L53.8895 89.5862C52.5819 90.2916 50.9411 89.8181 50.2218 88.5066M50.2218 88.5066L51.4731 87.8204M50.2218 88.5066C50.222 88.507 50.2222 88.5073 50.2224 88.5077L51.4731 87.8204M50.2218 88.5066C49.4986 87.1892 49.9949 85.5481 51.3067 84.8378L51.3101 84.836C51.4708 84.7496 52.1006 84.4393 53.2491 84.1203M51.4731 87.8204C51.1338 87.203 51.3636 86.4298 51.9862 86.0928C52.0721 86.0466 52.9669 85.5903 54.79 85.2184L53.5004 85.4777C53.4301 85.1281 53.3466 84.6711 53.2491 84.1203M53.2491 84.1203C53.1692 83.6682 53.0799 83.1529 52.9809 82.5818C52.2626 78.4369 51.0353 71.3553 49.1756 64.194C47.9652 59.5328 46.5049 54.9175 44.7789 51.1511C43.0239 47.3213 41.1131 44.6405 39.1422 43.5016M53.2491 84.1203C53.6447 84.0105 54.1017 83.8996 54.6222 83.7965L54.8731 85.0628C54.7551 84.4588 54.5979 83.5516 54.3995 82.4067C52.7564 72.9226 48.2874 47.127 39.8501 42.2625C32.3965 38.0439 24.6511 49.9697 40.3498 87.7634L39.1422 43.5016M39.1422 43.5016C37.6408 42.6536 36.3848 42.7246 35.4171 43.4305C34.3472 44.2109 33.2647 46.0211 32.8337 49.437C31.9753 56.2403 33.847 68.3881 41.6677 87.216L41.6683 87.2172C42.4971 89.2179 42.8637 91.4443 42.7364 93.6514M39.1422 43.5016L42.7364 93.6514M41.8088 178.066C41.8965 177.984 42.4876 177.489 43.2453 177.484C43.2349 177.792 43.2277 178.008 43.2247 178.096L41.8088 178.066ZM93.195 153.983L93.1893 153.988C93.1953 153.983 93.1989 153.981 93.195 153.983ZM79.5321 123.845C83.4534 123.417 86.1615 121.928 88.7401 119.578L88.741 119.577C92.5205 116.126 93.0264 111.487 92.7841 106.902L97.4957 99.8374C97.8823 99.9421 98.3446 100.018 98.8883 100.028L98.8974 100.028L98.9065 100.028C100.773 100.038 101.999 100.796 102.85 102.023C103.752 103.326 104.28 105.242 104.427 107.553C104.717 112.121 103.483 117.605 101.771 121.124C101.741 121.167 101.706 121.215 101.672 121.265C101.646 121.302 101.618 121.342 101.588 121.385C101.52 121.482 101.441 121.595 101.347 121.729C101.079 122.108 100.704 122.627 100.234 123.231C99.2909 124.442 97.9798 125.974 96.4112 127.375C93.1954 130.248 89.3379 132.204 85.44 130.658L85.4399 130.658C83.7241 129.978 82.2076 128.647 81.0962 127.071C80.3385 125.996 79.8118 124.868 79.5321 123.845ZM106.433 123.878C106.434 123.876 106.435 123.874 106.438 123.869C106.429 123.885 106.425 123.89 106.432 123.879L106.433 123.878ZM92.2811 89.6525L92.281 89.6525L92.2885 89.6607C93.3263 90.7864 93.6295 91.8843 93.7267 92.9162C93.7708 93.3846 93.7718 93.8226 93.7728 94.2911C93.773 94.3726 93.7732 94.455 93.7736 94.5387C93.7751 94.8519 93.7787 95.2207 93.8193 95.597L90.1024 101.171C88.1967 98.1897 85.3996 95.9081 82.0372 94.5904C83.268 92.1997 84.4068 89.5144 85.3076 87.2235C85.5197 87.2552 85.7241 87.2783 85.9119 87.2982C86.1299 87.3212 86.3422 87.3411 86.5529 87.3608C87.0556 87.4078 87.5495 87.454 88.0915 87.5411C89.5529 87.7762 91.0262 88.2699 92.2811 89.6525ZM58.1754 188.658L58.1593 188.654L58.1432 188.651C54.4277 187.929 51.7383 187.215 49.9407 185.779C48.2861 184.457 47.1904 182.34 47.2117 178.217C47.3319 176.638 47.3449 175.164 47.3567 173.836C47.358 173.685 47.3593 173.536 47.3608 173.39C47.3754 171.908 47.4045 170.649 47.5748 169.518C47.7422 168.405 48.0392 167.475 48.5551 166.657C49.0674 165.844 49.8454 165.063 51.0873 164.321C52.0528 163.754 52.7619 163.473 53.7677 163.342C54.8529 163.2 56.3167 163.229 58.8165 163.405C60.0871 163.494 61.6024 163.619 63.4343 163.77C68.7235 164.207 76.6512 164.861 88.9434 165.499L88.9578 165.5L88.9722 165.5C90.1711 165.538 90.922 166.056 91.431 166.869C91.9851 167.755 92.2835 169.063 92.2691 170.606L92.269 170.617L92.2685 170.911C92.2684 170.913 92.2684 170.915 92.2684 170.916C92.2619 171.644 92.2571 172.34 92.2525 173.008C92.2323 175.936 92.216 178.307 92.0729 180.285C91.897 182.718 91.5383 184.344 90.8776 185.526C90.2521 186.645 89.2787 187.498 87.5545 188.208C85.7927 188.933 83.3273 189.475 79.8155 189.978C72.4053 190.241 65.2153 190.194 58.1754 188.658Z" fill="#B4A8E2" stroke="#B4A8E2" stroke-width="2.85417"/>
</svg>
