<svg width="30" height="60" viewBox="0 0 30 60" fill="none" xmlns="http://www.w3.org/2000/svg">
<path d="M1.16478 6.10196C0.103151 8.24168 -0.121473 12.7302 3.84537 22.28C4.02643 22.7165 4.10942 23.208 4.0819 23.7068C3.89947 26.9474 3.57815 29.0458 3.32814 30.6784C3.22807 31.3318 3.13944 31.9107 3.0757 32.4583C2.96442 33.4143 2.93227 34.2651 3.06635 35.2105C3.1972 36.1331 3.48322 37.124 3.98272 38.3749V38.4035L4.02458 38.4829C4.02536 38.4849 4.02617 38.4869 4.027 38.4889C4.02975 38.4955 4.03308 38.5032 4.03709 38.5117C4.67553 40.0844 5.65686 42.0957 7.10995 44.9074C7.341 45.3551 7.39422 45.8 7.38314 46.2526C7.37757 46.48 7.35617 46.7019 7.33387 46.9331L7.33305 46.9416C7.3191 47.0863 7.30448 47.238 7.29573 47.3896C7.26179 47.4179 7.2303 47.4452 7.20166 47.4703L7.20164 47.4703L7.19757 47.474C6.48081 48.1178 6.13175 48.8216 5.95492 49.4063C5.86715 49.6965 5.82267 49.9543 5.79554 50.1542C5.78503 50.2315 5.7768 50.303 5.77023 50.3601C5.76849 50.3753 5.76686 50.3894 5.76534 50.4023C5.76152 50.4349 5.7585 50.459 5.75576 50.4778C5.7534 50.4939 5.75206 50.5003 5.75209 50.5003L5.74056 50.548L5.73869 50.5981L5.68852 52.0813L5.65626 53.0379L5.64662 53.3241L5.64449 53.3882L5.64446 53.3886L5.64437 53.3923L5.64428 53.3944L5.64426 53.3948L5.64424 53.3952L5.64424 53.3954L5.64424 53.3954L5.64424 53.3955L5.64417 53.3973L5.64413 53.3985L5.64409 53.4001L5.64391 53.4165C5.64397 53.4166 5.64404 53.4166 5.64411 53.4167C5.63099 55.5905 6.40276 56.912 7.53009 57.7203C8.59923 58.4869 9.93696 58.7476 10.9645 58.9478L11.006 58.9559L11.013 58.9573L11.02 58.9584C11.0195 58.9583 11.0395 58.9637 11.1568 58.9908C11.253 59.013 11.3872 59.0429 11.5603 59.0771C11.9065 59.1454 12.4052 59.2301 13.0668 59.3058C14.3882 59.4569 16.3564 59.5714 19.0546 59.4472C19.1254 59.4463 19.188 59.4389 19.219 59.4356L19.2284 59.4347L19.2378 59.4333C22.0844 59.0263 23.6983 58.3965 24.4987 56.9588C24.8864 56.2625 25.0537 55.4253 25.1346 54.4492C25.2046 53.6054 25.2126 52.6113 25.2218 51.4607C25.2232 51.2835 25.2247 51.1025 25.2264 50.9179C25.2617 49.8655 25.0164 48.9349 24.4986 48.2473C24.4381 47.4112 24.5264 46.7947 25.0862 46.1662C25.9312 45.2196 27.2884 43.4984 28.1655 41.364C29.0241 39.2748 29.4371 36.7503 28.4102 34.1729L28.4847 34.0213L28.477 34.0144C28.9509 32.9613 29.3287 31.5514 29.4548 30.1386C29.5904 28.6178 29.4426 27.0005 28.7128 25.8147L28.7124 25.8141C28.0655 24.7665 27.2288 24.4127 26.5458 24.2712C26.3301 24.2265 26.0964 24.1988 25.9285 24.179C25.8608 24.1709 25.8037 24.1642 25.763 24.1581C25.7592 24.1575 25.7554 24.157 25.7518 24.1564L4.58113 23.7345C4.61266 23.1635 4.51808 22.5968 4.30721 22.0884C0.346179 12.5527 0.656289 8.2518 1.61268 6.32419C2.46084 4.61078 4.12748 4.30094 5.41187 5.03449C8.96392 7.08249 10.6706 17.5186 11.1106 20.6687M1.16478 6.10196L1.61266 6.32418L1.16458 6.10237C1.16465 6.10223 1.16471 6.1021 1.16478 6.10196ZM1.16478 6.10196C1.64401 5.13409 2.37691 4.52514 3.20825 4.28186C4.03355 4.04034 4.91083 4.17254 5.65984 4.60031L5.66161 4.60132C6.67842 5.18758 7.5059 6.33175 8.18498 7.67243C8.87159 9.02797 9.44197 10.6568 9.90922 12.3017C10.7708 15.3348 11.2973 18.4794 11.5478 20.1934M11.5478 20.1934C11.5132 20.1954 11.4808 20.1974 11.4504 20.1996C11.3847 20.2042 11.3285 20.209 11.2855 20.2127C11.2757 20.2136 11.2666 20.2144 11.2582 20.2151C11.2043 20.2197 11.1933 20.2198 11.195 20.2198H11.1951C11.1983 20.2198 11.2207 20.2201 11.2529 20.2265C11.2865 20.2333 11.3454 20.2496 11.4089 20.2919C11.5624 20.3942 11.5966 20.543 11.6038 20.5862L11.1106 20.6687M11.5478 20.1934C11.5691 20.3395 11.5885 20.4751 11.6058 20.5995L11.1106 20.6687M11.5478 20.1934C11.8332 20.1772 12.2673 20.1695 12.9357 20.2138M11.1106 20.6687C11.1207 20.7288 11.1599 20.7254 11.3298 20.7108C11.5857 20.6887 12.1381 20.6411 13.334 20.7461M13.334 20.7461L13.1625 20.2765C13.0237 20.3271 12.9514 20.4234 12.9357 20.4443L12.9353 20.4449C12.9096 20.479 12.8943 20.5088 12.8878 20.5219C12.8741 20.5496 12.8667 20.5715 12.8651 20.5762C12.8607 20.5894 12.8592 20.5962 12.8611 20.5889C12.8639 20.5775 12.8694 20.5535 12.8778 20.5131C12.8922 20.444 12.9115 20.3437 12.9357 20.2138M13.334 20.7461C13.4052 20.7201 15.2447 9.51743 15.8663 5.40018C16.4878 1.33419 21.6834 -0.864756 23.6439 3.04888M13.334 20.7461L13.3778 20.248C13.22 20.2342 13.0729 20.2229 12.9357 20.2138M12.9357 20.2138C12.939 20.1957 12.9425 20.1769 12.9461 20.1576C13.0038 19.8437 13.0836 19.3903 13.1796 18.8316C13.3714 17.7151 13.6273 16.1849 13.9004 14.5261C14.4468 11.208 15.0616 7.38072 15.3719 5.32555L15.372 5.32463C15.7117 3.1024 17.2977 1.38809 19.0875 0.760352C19.9878 0.444573 20.9608 0.396885 21.8597 0.723484C22.7653 1.05251 23.55 1.74513 24.091 2.82493M23.6439 3.04888L24.0908 2.82461C24.0909 2.82472 24.0909 2.82483 24.091 2.82493M23.6439 3.04888C24.6071 4.96809 24.2903 6.28819 21.7902 16.7054C21.59 17.5397 21.3757 18.4324 21.147 19.3885M23.6439 3.04888L24.091 2.82493M24.091 2.82493C24.3713 3.38365 24.5618 3.91938 24.6244 4.61886C24.6857 5.30328 24.6223 6.12112 24.4354 7.24341C24.1182 9.14814 23.425 12.0366 22.2762 16.8232C22.0759 17.6577 21.8617 18.55 21.6333 19.5048L21.6333 19.5048M21.147 19.3885L21.6358 19.494C21.6354 19.4955 21.6346 19.4992 21.6333 19.5048M21.147 19.3885C21.1455 19.3954 21.1258 19.4768 21.0998 19.5844C21.0923 19.6154 21.0842 19.6487 21.0759 19.683C21.2492 19.6862 21.4185 19.6954 21.5837 19.7103C21.6072 19.6131 21.6264 19.5336 21.6333 19.5048M21.147 19.3885L21.6333 19.5048M4.95997 35.0058C5.90691 32.7493 7.21096 30.4763 8.84543 28.5618C10.8462 26.2184 13.3685 24.3827 16.3619 23.8152L16.3623 23.8151C16.848 23.7233 17.3351 23.696 17.814 23.7221C18.2849 22.8875 18.7527 21.7998 19.1199 20.8671C19.3219 20.3539 19.4908 19.8947 19.6097 19.562C19.6692 19.3957 19.7161 19.2612 19.7484 19.1675C19.7645 19.1207 19.777 19.0841 19.7855 19.0588L19.793 19.0368C21.3708 12.6531 22.2119 9.16413 22.5581 7.06227C22.731 6.01199 22.7741 5.34216 22.7341 4.8482C22.6955 4.37225 22.5786 4.04271 22.3926 3.67087L22.3925 3.67081C22.071 3.02787 21.6315 2.67428 21.1674 2.51647C20.6953 2.35597 20.1494 2.38209 19.6013 2.58912C18.4965 3.00649 17.4734 4.12818 17.2494 5.60974C17.2494 5.60981 17.2494 5.60989 17.2494 5.60996L16.755 5.53526C16.3693 8.09567 14.7519 18.028 14.3458 20.36L4.95997 35.0058ZM4.95997 35.0058C4.81922 34.0312 4.88886 33.1551 5.05059 32.0016C5.09655 31.6738 5.14995 31.3241 5.20789 30.9447C5.45647 29.317 5.78845 27.1431 5.97331 23.8122C6.0179 23.0389 5.88945 22.2588 5.59907 21.5579L5.59889 21.5574C2.85879 14.9608 2.203 10.7046 2.50375 8.321C2.65475 7.12419 3.03403 6.48997 3.40887 6.21654C3.74792 5.96922 4.18799 5.94436 4.71399 6.24145C5.40453 6.64047 6.07403 7.57972 6.68894 8.92157C7.29366 10.2412 7.80531 11.8582 8.22939 13.4913C8.88094 16.0004 9.31094 18.4816 9.56262 19.9338C9.5973 20.1339 9.62859 20.3144 9.65661 20.4728C9.2542 20.5846 9.03354 20.6933 8.97724 20.7236L8.97606 20.7242C8.5163 20.9731 8.34246 21.5484 8.59615 22.01C8.84826 22.4692 9.42295 22.635 9.88095 22.3879L9.8836 22.3864C10.1868 22.2205 10.6714 22.1186 11.2872 22.0836C11.8896 22.0494 12.5611 22.0816 13.1979 22.1422C13.8327 22.2027 14.4216 22.2903 14.8556 22.363C15.0723 22.3993 15.2497 22.4319 15.3745 22.4553C15.4373 22.4671 15.486 22.4765 15.5219 22.4833L15.5672 22.4918L15.5886 22.4955C15.5923 22.4961 15.5991 22.4971 15.6072 22.4982C15.6112 22.4987 15.618 22.4995 15.6262 22.5003C15.6322 22.5008 15.65 22.5024 15.6729 22.5024C16.8002 22.5024 16.9891 20.8686 15.8706 20.6308C15.5105 20.5541 15.1677 20.4899 14.8402 20.4359M21.0758 19.6834C21.2186 19.6923 21.326 19.7692 21.387 19.8484C21.441 19.9187 21.4985 20.0445 21.4652 20.202C21.4425 20.2002 21.4196 20.1986 21.3967 20.197C21.3891 20.1965 21.3814 20.196 21.3738 20.1955C21.2673 20.1887 21.1588 20.1843 21.0482 20.1826C20.9992 20.1826 20.9677 20.1326 20.9762 20.0979C20.9922 20.0299 21.0198 19.9153 21.0482 19.7977C21.0504 19.7887 21.0526 19.7797 21.0547 19.7706C21.0618 19.7413 21.0689 19.712 21.0758 19.6834ZM6.15161 53.1843C6.14798 53.2921 6.14543 53.3679 6.1444 53.3986L5.64831 53.3882C5.67905 53.3593 5.88615 53.1859 6.15161 53.1843Z" fill="#B4A8E2" stroke="#B4A8E2"/>
</svg>
