<svg width="81" height="98" viewBox="0 0 81 98" fill="none" xmlns="http://www.w3.org/2000/svg">
<path d="M44.8322 64.6118C42.387 63.4239 40.8965 61.3657 40.2984 59.0295C39.5981 56.2934 40.1242 53.2113 41.6522 50.6879C43.9274 46.9305 48.1472 44.3715 51.7095 42.7537C55.3035 41.1216 58.4198 40.3634 58.7053 40.2959C58.7055 40.2958 58.7058 40.2957 58.7061 40.2957L58.9468 41.3141L44.8322 64.6118ZM44.8322 64.6118C43.3974 66.578 43.1352 68.8729 43.5893 70.9513C44.0518 73.0681 45.2665 75.0252 46.8102 76.2882C45.8056 78.3426 45.4239 80.4615 45.8493 82.452C46.1926 84.0584 47.0443 85.499 48.3842 86.695C42.4579 88.0962 35.6843 89.1525 29.8466 87.5168C29.7641 87.4021 29.6579 87.2526 29.5308 87.0695C29.2023 86.5964 28.7341 85.8985 28.1778 85.0006C27.0646 83.2039 25.6011 80.6101 24.1991 77.4161C21.4229 71.0915 18.9128 62.4718 19.7822 53.0509C20.6266 52.1208 21.7208 51.426 23.0337 50.7098C23.3645 50.5294 23.712 50.3463 24.0711 50.1572C25.2076 49.5586 26.4592 48.8993 27.6575 48.0712C30.9387 45.8035 33.9015 42.2396 35.0752 34.7138L35.0753 34.7133C36.0652 28.349 34.4362 23.5074 32.6202 18.1099C32.2816 17.1035 31.9365 16.0779 31.6007 15.0194C31.1561 13.6024 30.9024 11.9307 30.9796 10.4109C31.0581 8.86285 31.4688 7.64447 32.17 6.93556L32.172 6.93358C35.1711 3.88553 42.2269 3.30919 48.0116 11.351C49.1168 12.8951 52.0802 18.5095 51.8555 25.0919L51.8554 25.0939C51.7007 29.8959 50.2429 35.1718 47.4823 40.7718C47.1311 41.4651 47.2957 42.2945 47.8388 42.8119C48.3874 43.3344 49.2179 43.4481 49.8875 43.0646L49.8876 43.0647L49.8994 43.0577C49.8993 43.0577 50.6322 42.6395 51.8309 42.0736C53.0267 41.509 54.6687 40.8058 56.4925 40.2263C58.3215 39.6452 60.2979 39.2 62.1709 39.1279C64.048 39.0557 65.7422 39.3608 67.0859 40.1963C69.4806 41.6902 70.826 45.0217 70.5859 50.7032L44.8322 64.6118ZM30.4995 91.2194C30.149 92.4728 29.2583 93.4507 28.2456 94.173C26.9053 95.1289 25.2045 95.755 23.7042 96.1219C21.4259 96.679 17.8407 97.0722 14.1631 94.6202L30.4995 91.2194ZM30.4995 91.2194C34.7501 92.0828 39.3514 91.8446 43.2533 91.2866C47.5249 90.6756 51.0463 89.6679 52.5082 89.2118L52.5098 89.2113C52.7313 89.1418 52.9146 89.1348 53.2276 89.1744C53.3558 89.1907 53.4849 89.2117 53.6456 89.2378C53.7079 89.2479 53.7748 89.2588 53.8482 89.2705C54.099 89.3104 54.3918 89.3535 54.7343 89.3863C56.1275 89.5196 58.1825 89.4661 61.8416 88.5714C68.2196 87.0118 72.4454 84.089 74.601 80.3449C76.6872 76.7213 76.7309 72.5078 75.1615 68.4091C78.509 65.5882 79.4397 61.5857 78.933 58.0999C78.6666 56.2673 78.0009 54.543 77.0502 53.1617C76.262 52.0166 75.2462 51.0643 74.0583 50.5197C74.2946 43.0612 71.9224 38.3072 67.3627 36.4488C63.4363 34.8484 58.2328 35.5709 52.5132 37.948C54.2342 33.5348 55.1845 29.2676 55.3185 25.2132C55.522 19.0862 53.4627 12.8396 49.992 8.29201C46.5229 3.74657 41.522 0.766948 35.8675 1.56881C32.1675 2.0744 29.6144 3.85702 28.3482 6.56636C27.1089 9.21797 27.1949 12.5616 28.3025 16.0605C28.6478 17.1732 29.0169 18.2614 29.3828 19.3398C30.3173 22.0944 31.2302 24.7852 31.6681 27.6587C31.6682 27.6603 31.6683 27.6619 31.6684 27.6634C31.6711 27.7049 31.6754 27.7442 31.6786 27.7712C31.685 27.8252 31.6946 27.8936 31.7039 27.9606L31.7047 27.9663L31.7052 27.9695C31.7255 28.1148 31.7528 28.3103 31.7811 28.558C31.8379 29.0562 31.8991 29.7692 31.9065 30.6578C31.9212 32.4357 31.7203 34.9187 30.8356 37.7864L30.8346 37.7895C29.5502 41.9989 27.4429 44.0879 25.2137 45.54C24.2679 46.1561 23.3069 46.6541 22.3259 47.1624C22.1138 47.2723 21.9007 47.3827 21.6867 47.4949C20.7781 47.9712 19.8552 48.4783 19.0019 49.0989C18.9906 49.0919 18.9794 49.0851 18.9684 49.0785C18.5993 48.8565 18.1419 48.6632 17.6346 48.5059C16.616 48.19 15.29 47.9863 13.8274 48.0372C10.8884 48.1394 7.31317 49.2776 4.58363 52.7128C2.41146 55.4452 1.40032 58.9961 1.80746 62.4748L1.80751 62.4752C2.80576 70.9746 4.31729 77.9345 6.34656 83.2891C8.36963 88.6275 10.95 92.4836 14.1629 94.6201L30.4995 91.2194ZM62.1402 76.5886C65.9755 75.1926 69.6588 73.0947 72.3436 70.934C73.1727 73.9873 72.8535 76.9177 71.112 79.3756C69.0735 82.2529 64.9285 84.7108 57.73 85.8427C56.5615 86.0261 55.6427 85.9897 54.9374 85.9086C54.6028 85.8701 54.3154 85.8216 54.0495 85.7768L53.9934 85.7673L53.9737 85.764C53.7936 85.7337 53.582 85.698 53.3774 85.6806C50.994 84.7309 49.7862 83.4623 49.345 82.1389C48.9482 80.9486 49.0988 79.4971 49.9173 77.8329C53.5896 78.8387 58.0487 78.0779 62.1402 76.5886ZM16.0694 91.7249L16.0687 91.7244C13.561 90.057 11.3252 86.8184 9.47302 81.8266C7.62823 76.8547 6.20913 70.2665 5.24875 62.069L5.24871 62.0686C4.44806 55.2559 10.7937 50.0226 16.4269 51.8175C15.6953 58.1289 16.6537 65.2951 18.5619 71.8966C20.554 78.7885 23.6131 85.1743 26.9906 89.4217L26.9943 89.4263C27.1844 89.6626 27.2234 89.8457 27.2183 89.9874C27.2125 90.146 27.1458 90.3674 26.9388 90.6467C26.5095 91.2261 25.6179 91.8561 24.3655 92.3247C21.8598 93.2623 18.5003 93.3439 16.0694 91.7249ZM75.47 58.346L75.4701 58.3463C75.9829 61 75.2461 62.8795 74.3743 64.1447C73.9313 64.7877 73.4458 65.2814 73.0493 65.6375C72.8511 65.8155 72.6765 65.9579 72.5348 66.0726C72.468 66.1267 72.3955 66.185 72.3382 66.2333C72.3084 66.2584 72.2122 66.3377 72.1258 66.4382C65.3942 73.3918 55.4331 74.7585 54.3028 74.8913C51.8258 74.8137 50.4593 74.4868 49.5708 73.9916C48.7106 73.5122 48.1765 72.809 47.5082 71.6153C46.9286 70.5797 46.7171 69.4811 46.8572 68.5328L46.8572 68.5324C47.0154 67.4589 47.5129 66.7023 47.9836 66.2002C48.22 65.9479 48.448 65.7622 48.6183 65.6376C48.6243 65.6332 48.6303 65.6288 48.6362 65.6245C51.0328 65.834 53.7914 65.3513 55.9288 64.8286C61.3882 63.4937 66.239 60.6116 72.5823 53.6687C73.0514 53.8827 73.6011 54.3501 74.1258 55.0996C74.7378 55.9738 75.2335 57.1199 75.47 58.346ZM71.8778 67.0025C71.8991 66.8236 71.9687 66.6393 72.0945 66.4797L71.9002 67.3722C71.8867 67.317 71.8568 67.1791 71.8778 67.0025ZM72.1653 66.3989C72.1691 66.395 72.173 66.391 72.1769 66.3871C72.3145 66.2498 72.459 66.1859 72.4821 66.1757L72.4843 66.1747C72.5142 66.1612 72.5098 66.163 72.493 66.1708C72.475 66.1791 72.4428 66.1942 72.423 66.2047L72.1653 66.3989ZM72.5527 52.6662L72.2911 52.4313L72.5527 52.6662Z" fill="#B4A8E2" stroke="#B4A8E2" stroke-width="2.09293" stroke-linejoin="bevel"/>
</svg>
