<svg width="99" height="184" viewBox="0 0 99 184" fill="none" xmlns="http://www.w3.org/2000/svg">
<mask id="path-1-outside-1_253_6" maskUnits="userSpaceOnUse" x="7" y="7" width="85" height="170" fill="black">
<rect fill="white" x="7" y="7" width="85" height="170"/>
<path d="M85.8236 103.627L85.8104 103.614C85.8104 103.602 85.7852 103.552 85.8104 103.501C85.7972 103.489 85.8104 103.489 85.8104 103.475C85.8489 103.412 85.8741 103.349 85.9114 103.274V103.262C88.7372 97.546 90.6374 86.6819 86.9883 80.7523C83.8415 75.6564 79.0758 77.4575 78.5758 76.2214C78.5048 76.1497 78.3931 75.856 78.4111 75.4786C78.9027 69.3077 74.6814 64.2512 66.5645 64.1222C66.4263 64.1222 66.3374 63.9813 66.3614 63.8834C66.4816 63.3734 66.8326 61.932 66.8434 61.8818C75.5455 25.506 76.8234 21.6294 73.8882 15.7808C68.3567 4.73872 53.6977 10.9429 51.9441 22.4148C50.1905 34.0313 45.0005 65.6389 44.7996 65.7123C39.184 65.219 38.5975 65.9189 38.5265 65.4937C37.2848 56.6062 32.4696 27.1613 22.4478 21.383C18.824 19.3134 14.1216 20.1876 11.7286 25.0218C9.03024 30.4604 8.15529 42.5952 19.331 69.4994C19.926 70.9337 20.1929 72.5328 20.1039 74.1437C18.6579 99.8321 14.0569 100.859 19.813 115.145C19.813 115.157 19.8263 115.17 19.8263 115.182C19.8395 115.207 19.8395 115.232 19.8515 115.245C21.6256 119.626 24.3744 125.266 28.4924 133.235C30.0874 136.325 29.1511 139.292 29.1511 141.606C28.8974 141.77 28.657 141.972 28.4287 142.173C24.8322 145.403 24.979 149.165 24.7796 149.99C24.7748 150.119 24.496 158.384 24.514 157.858C24.425 169.39 32.5598 170.975 38.5012 172.134C38.9556 172.209 45.7922 174.193 60.9023 173.494C61.0285 173.494 61.1427 173.481 61.2568 173.469C77.3174 171.172 76.7958 166.595 76.9426 150.809C77.0436 147.888 76.3092 145.484 74.9281 143.847C74.6853 141.115 74.8524 138.799 76.9041 136.495C81.5664 131.272 91.7663 117.615 85.8236 103.627ZM79.565 79.2559C88.825 79.3036 87.2492 94.897 83.594 102.268C83.2983 102.56 75.0107 115.938 65.7257 112.257C61.7148 110.667 58.9166 106.174 58.7689 102.912C63.162 102.76 65.8965 101.375 68.5575 98.9494C71.9232 95.8766 72.3629 91.6715 72.0697 87.0725L77.6311 78.7331C77.7825 78.7975 78.3666 79.2344 79.565 79.2559ZM74.0528 69.4618C76.6226 72.2492 75.5997 75.0735 76.0144 76.6012L70.7293 84.5263C68.8735 80.3883 65.3254 77.3597 60.8468 76.0937C62.5416 73.1045 64.1438 69.2386 65.258 66.314C66.823 67.1428 70.9819 66.0785 74.0528 69.4618ZM22.6234 74.2832C22.7376 72.3067 22.4082 70.3181 21.6726 68.5425C6.15398 31.1823 13.8105 19.3933 21.1786 23.5635C30.6033 28.9972 35.0191 60.8503 36.0554 66.0049C34.1804 66.3763 33.2621 66.8445 33.1755 66.891C32.5601 67.2242 32.3329 67.9885 32.6683 68.5988C33.0036 69.2103 33.7717 69.4348 34.3871 69.1028C38.9319 66.6151 51.2711 69.2568 51.3984 69.2568C52.9081 69.2568 53.1401 67.0809 51.6629 66.7668C50.1328 66.4408 48.7169 66.1972 47.3947 66.0108C47.5209 65.8878 53.2183 30.9834 54.4516 22.7959C55.8699 13.4091 67.3966 8.46116 71.6192 16.9045C73.9583 21.58 73.2864 25.2463 64.3787 61.2843C64.3474 61.3786 61.2872 70.5194 58.2102 75.5854C56.6909 75.4254 55.1415 75.4672 53.6054 75.7574C37.5424 78.8027 26.1922 95.5295 20.8566 110.684C20.8542 110.678 20.8518 110.671 20.8494 110.665L20.8506 110.652C17.58 100.441 21.3457 97.3083 22.6234 74.2832ZM22.3001 114.569C23.0152 110.682 33.0539 82.2168 54.0796 78.2301C66.0572 75.9539 74.519 89.9601 66.0258 97.7491C62.4235 100.355 56.1264 101.148 47.2741 100.101C46.583 100.018 45.9484 100.511 45.8666 101.202C45.6683 102.861 47.7958 102.71 49.5723 102.856C49.5266 104.726 48.6768 109.507 42.0191 115.314C40.7582 116.413 42.4314 118.304 43.691 117.206C50.8621 110.95 52.0193 105.589 52.0963 103.012C53.5578 103.071 54.9401 103.066 56.2465 103.003C56.4377 107.22 59.7347 112.592 64.7853 114.595C72.1677 117.525 79.1224 112.228 84.0047 105.967C83.9795 106.094 89.6744 118.404 75.0139 134.822C74.9382 134.911 74.8625 134.999 74.7988 135.086C74.7916 135.095 74.7856 135.104 74.7783 135.114C74.7363 135.153 74.6846 135.176 74.6473 135.222C71.6052 138.981 63.9894 134.493 63.9125 134.446C63.3127 134.088 62.5351 134.279 62.1733 134.874C61.8115 135.468 62.0038 136.242 62.6024 136.601C62.862 136.757 67.0496 139.232 71.123 139.232C71.6434 139.232 72.1603 139.189 72.6687 139.099C72.4163 140.015 72.2901 140.968 72.2781 141.934C71.5557 141.657 70.7576 141.493 69.909 141.468C37.2802 139.632 36.2063 138.281 31.8093 140.096C32.4788 130.767 30.2173 133.996 22.3001 114.569ZM74.4064 150.749C74.2682 166.098 74.9317 168.981 60.8109 170.992C53.4356 171.256 46.1565 171.221 38.9929 169.658C31.733 168.248 26.9817 166.662 27.0454 157.9C27.5719 151.104 26.0093 146.325 31.5684 143.008C35.8654 140.481 37.0879 142.281 69.7819 143.978C73.1353 144.084 74.4384 147.088 74.407 150.448L74.4064 150.749Z"/>
</mask>
<path d="M85.8236 103.627L85.8104 103.614C85.8104 103.602 85.7852 103.552 85.8104 103.501C85.7972 103.489 85.8104 103.489 85.8104 103.475C85.8489 103.412 85.8741 103.349 85.9114 103.274V103.262C88.7372 97.546 90.6374 86.6819 86.9883 80.7523C83.8415 75.6564 79.0758 77.4575 78.5758 76.2214C78.5048 76.1497 78.3931 75.856 78.4111 75.4786C78.9027 69.3077 74.6814 64.2512 66.5645 64.1222C66.4263 64.1222 66.3374 63.9813 66.3614 63.8834C66.4816 63.3734 66.8326 61.932 66.8434 61.8818C75.5455 25.506 76.8234 21.6294 73.8882 15.7808C68.3567 4.73872 53.6977 10.9429 51.9441 22.4148C50.1905 34.0313 45.0005 65.6389 44.7996 65.7123C39.184 65.219 38.5975 65.9189 38.5265 65.4937C37.2848 56.6062 32.4696 27.1613 22.4478 21.383C18.824 19.3134 14.1216 20.1876 11.7286 25.0218C9.03024 30.4604 8.15529 42.5952 19.331 69.4994C19.926 70.9337 20.1929 72.5328 20.1039 74.1437C18.6579 99.8321 14.0569 100.859 19.813 115.145C19.813 115.157 19.8263 115.17 19.8263 115.182C19.8395 115.207 19.8395 115.232 19.8515 115.245C21.6256 119.626 24.3744 125.266 28.4924 133.235C30.0874 136.325 29.1511 139.292 29.1511 141.606C28.8974 141.77 28.657 141.972 28.4287 142.173C24.8322 145.403 24.979 149.165 24.7796 149.99C24.7748 150.119 24.496 158.384 24.514 157.858C24.425 169.39 32.5598 170.975 38.5012 172.134C38.9556 172.209 45.7922 174.193 60.9023 173.494C61.0285 173.494 61.1427 173.481 61.2568 173.469C77.3174 171.172 76.7958 166.595 76.9426 150.809C77.0436 147.888 76.3092 145.484 74.9281 143.847C74.6853 141.115 74.8524 138.799 76.9041 136.495C81.5664 131.272 91.7663 117.615 85.8236 103.627ZM79.565 79.2559C88.825 79.3036 87.2492 94.897 83.594 102.268C83.2983 102.56 75.0107 115.938 65.7257 112.257C61.7148 110.667 58.9166 106.174 58.7689 102.912C63.162 102.76 65.8965 101.375 68.5575 98.9494C71.9232 95.8766 72.3629 91.6715 72.0697 87.0725L77.6311 78.7331C77.7825 78.7975 78.3666 79.2344 79.565 79.2559ZM74.0528 69.4618C76.6226 72.2492 75.5997 75.0735 76.0144 76.6012L70.7293 84.5263C68.8735 80.3883 65.3254 77.3597 60.8468 76.0937C62.5416 73.1045 64.1438 69.2386 65.258 66.314C66.823 67.1428 70.9819 66.0785 74.0528 69.4618ZM22.6234 74.2832C22.7376 72.3067 22.4082 70.3181 21.6726 68.5425C6.15398 31.1823 13.8105 19.3933 21.1786 23.5635C30.6033 28.9972 35.0191 60.8503 36.0554 66.0049C34.1804 66.3763 33.2621 66.8445 33.1755 66.891C32.5601 67.2242 32.3329 67.9885 32.6683 68.5988C33.0036 69.2103 33.7717 69.4348 34.3871 69.1028C38.9319 66.6151 51.2711 69.2568 51.3984 69.2568C52.9081 69.2568 53.1401 67.0809 51.6629 66.7668C50.1328 66.4408 48.7169 66.1972 47.3947 66.0108C47.5209 65.8878 53.2183 30.9834 54.4516 22.7959C55.8699 13.4091 67.3966 8.46116 71.6192 16.9045C73.9583 21.58 73.2864 25.2463 64.3787 61.2843C64.3474 61.3786 61.2872 70.5194 58.2102 75.5854C56.6909 75.4254 55.1415 75.4672 53.6054 75.7574C37.5424 78.8027 26.1922 95.5295 20.8566 110.684C20.8542 110.678 20.8518 110.671 20.8494 110.665L20.8506 110.652C17.58 100.441 21.3457 97.3083 22.6234 74.2832ZM22.3001 114.569C23.0152 110.682 33.0539 82.2168 54.0796 78.2301C66.0572 75.9539 74.519 89.9601 66.0258 97.7491C62.4235 100.355 56.1264 101.148 47.2741 100.101C46.583 100.018 45.9484 100.511 45.8666 101.202C45.6683 102.861 47.7958 102.71 49.5723 102.856C49.5266 104.726 48.6768 109.507 42.0191 115.314C40.7582 116.413 42.4314 118.304 43.691 117.206C50.8621 110.95 52.0193 105.589 52.0963 103.012C53.5578 103.071 54.9401 103.066 56.2465 103.003C56.4377 107.22 59.7347 112.592 64.7853 114.595C72.1677 117.525 79.1224 112.228 84.0047 105.967C83.9795 106.094 89.6744 118.404 75.0139 134.822C74.9382 134.911 74.8625 134.999 74.7988 135.086C74.7916 135.095 74.7856 135.104 74.7783 135.114C74.7363 135.153 74.6846 135.176 74.6473 135.222C71.6052 138.981 63.9894 134.493 63.9125 134.446C63.3127 134.088 62.5351 134.279 62.1733 134.874C61.8115 135.468 62.0038 136.242 62.6024 136.601C62.862 136.757 67.0496 139.232 71.123 139.232C71.6434 139.232 72.1603 139.189 72.6687 139.099C72.4163 140.015 72.2901 140.968 72.2781 141.934C71.5557 141.657 70.7576 141.493 69.909 141.468C37.2802 139.632 36.2063 138.281 31.8093 140.096C32.4788 130.767 30.2173 133.996 22.3001 114.569ZM74.4064 150.749C74.2682 166.098 74.9317 168.981 60.8109 170.992C53.4356 171.256 46.1565 171.221 38.9929 169.658C31.733 168.248 26.9817 166.662 27.0454 157.9C27.5719 151.104 26.0093 146.325 31.5684 143.008C35.8654 140.481 37.0879 142.281 69.7819 143.978C73.1353 144.084 74.4384 147.088 74.407 150.448L74.4064 150.749Z" fill="#B4A8E2"/>
<path d="M85.8236 103.627L88.4204 102.524L88.2042 102.015L87.8119 101.625L85.8236 103.627ZM85.8104 103.614H82.989V104.788L83.8222 105.616L85.8104 103.614ZM85.8104 103.501L88.3425 104.745L89.2818 102.834L87.7016 101.407L85.8104 103.501ZM85.8104 103.475L83.3993 102.01L82.989 102.685V103.475H85.8104ZM85.9114 103.274L88.4398 104.526L88.7328 103.934V103.274H85.9114ZM85.9114 103.262L83.3822 102.011L83.09 102.602V103.262H85.9114ZM86.9883 80.7523L89.3912 79.2736L89.3889 79.2699L86.9883 80.7523ZM78.5758 76.2214L81.1913 75.1633L80.9791 74.6389L80.5811 74.2367L78.5758 76.2214ZM78.4111 75.4786L75.5986 75.2545L75.595 75.2992L75.5929 75.3439L78.4111 75.4786ZM66.5645 64.1222L66.6094 61.3011L66.587 61.3008H66.5645V64.1222ZM66.3614 63.8834L69.1015 64.556L69.1046 64.5433L69.1076 64.5306L66.3614 63.8834ZM66.8434 61.8818L64.0994 61.2253L64.0921 61.2558L64.0855 61.2864L66.8434 61.8818ZM73.8882 15.7808L71.3656 17.0445L71.3666 17.0463L73.8882 15.7808ZM51.9441 22.4148L49.1551 21.9885L49.1543 21.9936L51.9441 22.4148ZM44.7996 65.7123L44.5527 68.5229L45.1779 68.5778L45.7674 68.3625L44.7996 65.7123ZM38.5265 65.4937L35.7322 65.8841L35.7374 65.9216L35.7436 65.959L38.5265 65.4937ZM22.4478 21.383L23.8571 18.9387L23.847 18.933L22.4478 21.383ZM11.7286 25.0218L14.2561 26.2758L14.2572 26.2735L11.7286 25.0218ZM19.331 69.4994L21.9372 68.4183L21.9366 68.4171L19.331 69.4994ZM20.1039 74.1437L22.9209 74.3023L22.921 74.2993L20.1039 74.1437ZM19.813 115.145H22.6345V114.598L22.43 114.091L19.813 115.145ZM19.8263 115.182H17.0048V115.88L17.3304 116.498L19.8263 115.182ZM19.8515 115.245L22.4666 114.186L22.2759 113.716L21.9331 113.341L19.8515 115.245ZM28.4924 133.235L30.9996 131.941L30.9989 131.939L28.4924 133.235ZM29.1511 141.606L30.6806 143.977L31.9725 143.144V141.606H29.1511ZM28.4287 142.173L26.5664 140.053L26.5548 140.063L26.5433 140.074L28.4287 142.173ZM24.7796 149.99L22.0371 149.327L21.9707 149.602L21.9602 149.885L24.7796 149.99ZM24.514 157.858L27.3353 157.879L21.6942 157.761L24.514 157.858ZM38.5012 172.134L37.9613 174.903L38.0007 174.911L38.0403 174.917L38.5012 172.134ZM60.9023 173.494V170.673H60.8371L60.772 170.676L60.9023 173.494ZM61.2568 173.469L61.5504 176.275L61.6034 176.27L61.6562 176.262L61.2568 173.469ZM76.9426 150.809L74.1228 150.712L74.1216 150.747L74.1213 150.783L76.9426 150.809ZM74.9281 143.847L72.1178 144.097L72.1967 144.985L72.7715 145.666L74.9281 143.847ZM76.9041 136.495L74.7994 134.616L74.7972 134.618L76.9041 136.495ZM79.565 79.2559L79.5144 82.0768L79.5324 82.0771L79.5504 82.0772L79.565 79.2559ZM83.594 102.268L85.5745 104.278L85.9115 103.946L86.1217 103.522L83.594 102.268ZM65.7257 112.257L66.7655 109.634L66.7652 109.634L65.7257 112.257ZM58.7689 102.912L58.6716 100.092L55.8214 100.191L55.9504 103.04L58.7689 102.912ZM68.5575 98.9494L70.4582 101.035L70.4599 101.033L68.5575 98.9494ZM72.0697 87.0724L69.7223 85.507L69.1933 86.3004L69.2539 87.252L72.0697 87.0724ZM77.6311 78.7331L78.7365 76.1372L76.5826 75.22L75.2837 77.1677L77.6311 78.7331ZM74.0528 69.4618L71.9636 71.358L71.971 71.3662L71.9784 71.3742L74.0528 69.4618ZM76.0144 76.6012L78.3617 78.1666L79.0732 77.0997L78.7373 75.8621L76.0144 76.6012ZM70.7293 84.5263L68.1549 85.6809L70.2441 90.3392L73.0766 86.0917L70.7293 84.5263ZM60.8468 76.0937L58.3924 74.7021L56.6188 77.8305L60.0793 78.8087L60.8468 76.0937ZM65.258 66.314L66.5785 63.8207L63.7578 62.3268L62.6215 65.3095L65.258 66.314ZM22.6234 74.2832L19.8067 74.1204L19.8063 74.1268L22.6234 74.2832ZM21.6726 68.5425L24.2793 67.4627L24.2782 67.4602L21.6726 68.5425ZM21.1786 23.5635L22.5879 21.1192L22.5781 21.1136L22.5683 21.108L21.1786 23.5635ZM36.0554 66.0049L36.6036 68.7726L39.3792 68.2228L38.8215 65.4488L36.0554 66.0049ZM33.1755 66.891L31.8389 64.4063L31.8322 64.4099L33.1755 66.891ZM32.6683 68.5988L35.1421 67.2421L35.141 67.24L32.6683 68.5988ZM34.3871 69.1028L35.7268 71.5859L35.7343 71.5818L35.7418 71.5777L34.3871 69.1028ZM51.6629 66.7668L51.0749 69.5263L51.0761 69.5266L51.6629 66.7668ZM47.3947 66.0108L45.4255 63.9903L41.3089 68.0025L47.001 68.8047L47.3947 66.0108ZM54.4516 22.7959L51.6618 22.3744L51.6616 22.3757L54.4516 22.7959ZM71.6192 16.9045L69.0958 18.1665L69.0959 18.1668L71.6192 16.9045ZM64.3787 61.2843L67.057 62.1714L67.0914 62.0675L67.1177 61.9613L64.3787 61.2843ZM58.2102 75.5854L57.9146 78.3913L59.6932 78.5786L60.6216 77.0501L58.2102 75.5854ZM53.6054 75.7574L53.0816 72.985L53.0799 72.9853L53.6054 75.7574ZM20.8566 110.684L18.2393 111.738L21.0333 118.678L23.5179 111.621L20.8566 110.684ZM20.8494 110.665L18.0397 110.408L17.9776 111.086L18.2321 111.719L20.8494 110.665ZM20.8506 110.652L23.6603 110.909L23.7126 110.337L23.5376 109.791L20.8506 110.652ZM22.3001 114.569L19.5252 114.059L19.3759 114.87L19.6873 115.634L22.3001 114.569ZM54.0796 78.2301L54.6052 81.0022L54.6063 81.0019L54.0796 78.2301ZM66.0258 97.7491L67.6795 100.035L67.8121 99.9392L67.9328 99.8285L66.0258 97.7491ZM47.2741 100.101L46.9401 102.902L46.9426 102.903L47.2741 100.101ZM45.8666 101.202L48.6681 101.537L48.6685 101.533L45.8666 101.202ZM49.5723 102.856L52.3929 102.925L52.4579 100.262L49.8029 100.044L49.5723 102.856ZM42.0191 115.314L43.8727 117.441L43.8738 117.44L42.0191 115.314ZM43.691 117.206L45.5445 119.333L45.5458 119.332L43.691 117.206ZM52.0962 103.012L52.2091 100.193L49.3611 100.079L49.2761 102.928L52.0962 103.012ZM56.2465 103.003L59.0651 102.875L58.9369 100.048L56.11 100.185L56.2465 103.003ZM64.7853 114.595L65.826 111.973L65.8253 111.973L64.7853 114.595ZM84.0047 105.967L86.7726 106.513L81.7797 104.232L84.0047 105.967ZM75.0139 134.822L72.9094 132.943L72.8902 132.965L72.8714 132.987L75.0139 134.822ZM74.7988 135.086L76.9351 136.929L77.0096 136.843L77.0769 136.751L74.7988 135.086ZM74.7783 135.114L76.7073 137.173L76.8842 137.007L77.0302 136.814L74.7783 135.114ZM74.6473 135.222L76.8404 136.998L76.8455 136.991L76.8506 136.985L74.6473 135.222ZM63.9125 134.446L65.3742 132.033L65.3668 132.028L65.3594 132.024L63.9125 134.446ZM62.1733 134.874L64.5837 136.34L64.5838 136.34L62.1733 134.874ZM62.6024 136.601L64.0586 134.184L64.0514 134.18L62.6024 136.601ZM72.6687 139.099L75.3887 139.849L76.5743 135.546L72.1792 136.32L72.6687 139.099ZM72.2781 141.934L71.2677 144.568L75.049 146.019L75.0993 141.969L72.2781 141.934ZM69.909 141.468L69.7504 144.285L69.788 144.288L69.8257 144.289L69.909 141.468ZM31.8093 140.096L28.9951 139.894L28.6685 144.445L32.8859 142.704L31.8093 140.096ZM74.4064 150.749L77.2277 150.775L77.2278 150.765L77.2278 150.755L74.4064 150.749ZM60.8109 170.992L60.9118 173.812L61.0609 173.806L61.2087 173.785L60.8109 170.992ZM38.9929 169.658L39.5945 166.901L39.5628 166.895L39.531 166.888L38.9929 169.658ZM27.0454 157.9L24.2324 157.683L24.2248 157.781L24.2241 157.88L27.0454 157.9ZM31.5684 143.008L30.1381 140.576L30.1304 140.581L30.1228 140.585L31.5684 143.008ZM69.7819 143.978L69.6357 146.795L69.6641 146.797L69.6926 146.798L69.7819 143.978ZM74.407 150.448L71.5857 150.422L71.5856 150.432L71.5856 150.442L74.407 150.448ZM87.8119 101.625L87.7986 101.612L83.8222 105.616L83.8354 105.629L87.8119 101.625ZM88.6318 103.614C88.6318 103.388 88.6042 103.211 88.5905 103.132C88.5748 103.041 88.558 102.97 88.5497 102.936C88.5368 102.884 88.5186 102.819 88.5276 102.852C88.5317 102.866 88.5652 102.985 88.5894 103.142C88.6388 103.462 88.6714 104.076 88.3425 104.745L83.2783 102.256C82.9242 102.977 82.9568 103.641 83.0125 104.002C83.0398 104.179 83.0781 104.316 83.0861 104.345C83.0971 104.385 83.0806 104.327 83.0691 104.279C83.0614 104.248 83.0451 104.18 83.0298 104.091C83.0165 104.014 82.989 103.839 82.989 103.614H88.6318ZM87.7016 101.407C87.7785 101.476 87.9052 101.598 88.0385 101.771C88.1718 101.943 88.3576 102.224 88.4851 102.612C88.623 103.032 88.6623 103.484 88.5912 103.933C88.5255 104.347 88.3816 104.652 88.3014 104.804C88.2342 104.932 88.1556 105.051 88.1868 105.002C88.1923 104.993 88.257 104.893 88.3243 104.761C88.487 104.44 88.6318 104.002 88.6318 103.475H82.989C82.989 102.956 83.1321 102.522 83.2928 102.206C83.3591 102.075 83.4227 101.977 83.4271 101.97C83.4572 101.923 83.3776 102.044 83.3095 102.173C83.2285 102.327 83.084 102.633 83.018 103.049C82.9466 103.499 82.986 103.953 83.1246 104.375C83.2527 104.764 83.4396 105.048 83.5747 105.223C83.7099 105.397 83.839 105.522 83.9192 105.594L87.7016 101.407ZM88.2216 104.941C88.3143 104.788 88.3779 104.657 88.4089 104.592C88.4213 104.566 88.4392 104.527 88.4399 104.526C88.445 104.515 88.4437 104.518 88.4398 104.526L83.383 102.022C83.3716 102.045 83.3614 102.066 83.3527 102.084C83.344 102.102 83.3365 102.118 83.3307 102.13C83.3278 102.136 83.3252 102.142 83.323 102.147C83.3207 102.152 83.3192 102.155 83.3176 102.158C83.3145 102.165 83.3137 102.167 83.3138 102.166C83.314 102.166 83.3162 102.161 83.3198 102.154C83.3234 102.147 83.3289 102.136 83.336 102.122C83.3503 102.095 83.3715 102.056 83.3993 102.01L88.2216 104.941ZM88.7328 103.274V103.262H83.09V103.274H88.7328ZM88.4406 104.512C90.0242 101.309 91.2884 96.8197 91.6882 92.3379C92.0816 87.9275 91.6844 82.9999 89.3912 79.2736L84.5855 82.231C85.9414 84.4343 86.4185 87.9036 86.0677 91.8365C85.7232 95.6981 84.6244 99.4986 83.3822 102.011L88.4406 104.512ZM89.3889 79.2699C87.3119 75.9065 84.5688 74.7338 82.3618 74.2766C81.477 74.0933 80.3076 73.9784 80.0755 73.9437C79.8332 73.9075 79.8959 73.897 80.0633 73.9687C80.277 74.0603 80.8763 74.3846 81.1913 75.1633L75.9602 77.2794C76.4002 78.3672 77.2579 78.9056 77.8402 79.1552C78.3762 79.3849 78.9178 79.4763 79.2418 79.5247C80.1422 79.6592 80.4547 79.6442 81.2172 79.8022C82.3047 80.0275 83.5179 80.5023 84.5878 82.2347L89.3889 79.2699ZM80.5811 74.2367C80.7643 74.4218 80.879 74.5916 80.9373 74.6845C81.0027 74.7887 81.0479 74.878 81.0774 74.9416C81.1359 75.068 81.1681 75.1697 81.1862 75.2376C81.2227 75.3744 81.2348 75.4971 81.2293 75.6132L75.5929 75.3439C75.5693 75.8374 75.6283 76.2957 75.7339 76.6917C75.7866 76.8891 75.8589 77.1013 75.9578 77.3147C76.0303 77.4712 76.2145 77.8465 76.5704 78.206L80.5811 74.2367ZM81.2236 75.7026C81.5267 71.8977 80.374 68.2596 77.7321 65.561C75.0992 62.8715 71.2466 61.3749 66.6094 61.3011L66.5197 66.9433C69.9994 66.9986 72.3159 68.0947 73.6999 69.5085C75.0749 70.913 75.7871 72.8886 75.5986 75.2545L81.2236 75.7026ZM66.5645 61.3008C67.5169 61.3008 68.2364 61.7965 68.6386 62.3195C68.9897 62.7759 69.3414 63.5785 69.1015 64.556L63.6213 63.2108C63.3574 64.2861 63.7416 65.2081 64.1656 65.7595C64.6409 66.3775 65.474 66.9436 66.5645 66.9436V61.3008ZM69.1076 64.5306C69.1653 64.2856 69.2809 63.807 69.3857 63.3736C69.4792 62.9874 69.5861 62.5477 69.6013 62.4772L64.0855 61.2864C64.0925 61.254 64.0829 61.2952 64.038 61.481C64.0017 61.6312 63.9535 61.8301 63.9011 62.0467C63.7977 62.474 63.6777 62.9712 63.6152 63.2361L69.1076 64.5306ZM69.5874 62.5382C73.9178 44.4366 76.4513 34.222 77.5129 27.8471C78.0474 24.6378 78.2483 22.1924 78.0597 20.0846C77.8634 17.8911 77.2587 16.2065 76.4099 14.5152L71.3666 17.0463C71.9854 18.2793 72.3216 19.2726 72.4393 20.5876C72.5647 21.9883 72.4526 23.8822 71.9467 26.9201C70.9276 33.0397 68.4711 42.9513 64.0994 61.2253L69.5874 62.5382ZM76.4108 14.5171C74.7413 11.1844 72.2664 8.95866 69.3359 7.89392C66.4431 6.84287 63.3583 7.01314 60.5656 7.99264C55.0418 9.93009 50.1951 15.1847 49.1551 21.9885L54.7332 22.8411C55.4467 18.173 58.8064 14.5896 62.4333 13.3175C64.216 12.6922 65.9427 12.6648 67.409 13.1976C68.8376 13.7166 70.2694 14.8561 71.3656 17.0445L76.4108 14.5171ZM49.1543 21.9936C48.2804 27.7824 46.547 38.5732 45.0056 47.9338C44.2352 52.6125 43.514 56.9261 42.9734 60.0718C42.7028 61.6464 42.479 62.9193 42.3175 63.7964C42.2362 64.2383 42.1739 64.5619 42.1311 64.7681C42.1207 64.8182 42.1124 64.8569 42.106 64.8855C42.0993 64.9159 42.0966 64.9263 42.0975 64.9225C42.0981 64.9202 42.1012 64.9081 42.1066 64.889C42.1112 64.8726 42.1227 64.8329 42.1406 64.7799C42.1524 64.7451 42.1966 64.615 42.2761 64.4542C42.3135 64.3786 42.401 64.2087 42.5469 64.0146C42.6307 63.9031 43.0401 63.3511 43.8318 63.062L45.7674 68.3625C46.5606 68.0728 46.9717 67.5193 47.0574 67.4054C47.2052 67.2087 47.2948 67.0354 47.3343 66.9554C47.4182 66.7859 47.4673 66.6432 47.4846 66.592C47.5265 66.4685 47.5548 66.3588 47.568 66.3067C47.5991 66.1838 47.6294 66.0444 47.6562 65.915C47.7124 65.6445 47.7839 65.2701 47.8671 64.818C48.0348 63.9072 48.2631 62.608 48.5347 61.0275C49.0786 57.8632 49.8021 53.5351 50.5735 48.8506C52.1157 39.485 53.8542 28.6637 54.7339 22.836L49.1543 21.9936ZM45.0464 62.9017C42.1044 62.6433 40.4047 62.6915 39.3864 62.763C39.1453 62.7799 38.943 62.7982 38.8235 62.8083C38.656 62.8225 38.6959 62.8156 38.7817 62.8167C38.8361 62.8173 38.9952 62.821 39.2049 62.8631C39.4209 62.9064 39.7744 63.0065 40.1501 63.2567C41.0499 63.856 41.2596 64.7316 41.3093 65.0285L35.7436 65.959C35.8111 66.3621 36.0546 67.3089 37.0221 67.9532C37.7847 68.4612 38.5603 68.4572 38.7121 68.4591C38.9507 68.462 39.1946 68.44 39.3002 68.431C39.4539 68.418 39.5937 68.4051 39.7813 68.392C40.4779 68.3431 41.8792 68.2881 44.5527 68.5229L45.0464 62.9017ZM41.3207 65.1034C40.6934 60.6127 39.158 50.8807 36.4938 41.5015C35.163 36.8166 33.5247 32.1256 31.5304 28.1883C29.5786 24.335 27.0893 20.8023 23.857 18.9388L21.0385 23.8273C22.8172 24.8528 24.688 27.1677 26.4965 30.7381C28.2625 34.2247 29.7847 38.5337 31.0656 43.0433C33.6249 52.053 35.1179 61.4872 35.7322 65.8841L41.3207 65.1034ZM23.847 18.933C21.4324 17.554 18.5635 17.1069 15.8342 17.9056C13.0701 18.7145 10.7077 20.7244 9.20005 23.7701L14.2572 26.2735C15.1425 24.485 16.3279 23.6406 17.4191 23.3213C18.5451 22.9918 19.8393 23.1424 21.0485 23.833L23.847 18.933ZM9.2012 23.7678C5.90892 30.4034 5.51638 43.5972 16.7255 70.5817L21.9366 68.4171C10.7942 41.5931 12.1516 30.5175 14.2561 26.2758L9.2012 23.7678ZM16.7249 70.5805C17.1518 71.6094 17.3532 72.7845 17.2868 73.9882L22.921 74.2993C23.0325 72.2812 22.7003 70.258 21.9372 68.4183L16.7249 70.5805ZM17.2869 73.9852C16.5686 86.7472 15.1021 93.0366 14.4552 98.5942C14.133 101.362 14.0322 103.893 14.4333 106.72C14.8316 109.529 15.7062 112.502 17.196 116.2L22.43 114.091C21.0418 110.645 20.333 108.133 20.0203 105.928C19.7103 103.743 19.7709 101.732 20.0602 99.2466C20.6363 94.2971 22.1933 87.2286 22.9209 74.3023L17.2869 73.9852ZM16.9916 115.145C16.9916 115.276 17.0007 115.397 17.0147 115.506C17.0287 115.615 17.0477 115.714 17.0683 115.801C17.0888 115.887 17.1113 115.964 17.1329 116.03C17.1546 116.096 17.1762 116.154 17.1957 116.203C17.2152 116.252 17.2336 116.294 17.2492 116.328C17.2648 116.362 17.2787 116.391 17.2895 116.412C17.3002 116.434 17.3092 116.451 17.3147 116.462C17.3175 116.468 17.3199 116.472 17.3214 116.475C17.3227 116.477 17.324 116.48 17.324 116.48C17.3251 116.482 17.3215 116.475 17.3172 116.467C17.3125 116.458 17.3043 116.442 17.2944 116.422C17.2844 116.402 17.2712 116.375 17.2563 116.342C17.2415 116.309 17.2237 116.269 17.2048 116.222C17.186 116.174 17.1649 116.118 17.1437 116.053C17.1226 115.989 17.1005 115.914 17.0804 115.829C17.0602 115.744 17.0414 115.647 17.0276 115.539C17.0138 115.431 17.0048 115.312 17.0048 115.182H22.6477C22.6477 115.051 22.6386 114.93 22.6246 114.821C22.6106 114.712 22.5915 114.613 22.571 114.527C22.5505 114.44 22.528 114.363 22.5063 114.297C22.4847 114.231 22.463 114.173 22.4435 114.124C22.424 114.076 22.4056 114.034 22.39 113.999C22.3745 113.965 22.3605 113.937 22.3498 113.915C22.339 113.893 22.3301 113.876 22.3246 113.865C22.3217 113.86 22.3194 113.855 22.3179 113.853C22.3165 113.85 22.3153 113.848 22.3153 113.848C22.3142 113.845 22.3178 113.852 22.3221 113.861C22.3268 113.87 22.335 113.885 22.3449 113.906C22.3549 113.926 22.3681 113.953 22.383 113.985C22.3978 114.018 22.4156 114.059 22.4345 114.106C22.4533 114.153 22.4744 114.209 22.4956 114.274C22.5167 114.339 22.5388 114.414 22.5589 114.499C22.5791 114.584 22.5979 114.681 22.6117 114.788C22.6255 114.896 22.6345 115.016 22.6345 115.145H16.9916ZM17.3304 116.498C17.2434 116.333 17.1903 116.191 17.1599 116.1C17.1353 116.027 17.1137 115.949 17.1263 115.993C17.1266 115.994 17.1664 116.141 17.2366 116.311C17.3115 116.492 17.4672 116.819 17.7698 117.15L21.9331 113.341C22.2297 113.665 22.381 113.984 22.4521 114.156C22.4892 114.246 22.5142 114.32 22.5282 114.364C22.5419 114.407 22.5513 114.44 22.5524 114.444C22.5618 114.477 22.537 114.387 22.5082 114.301C22.4738 114.199 22.4157 114.044 22.3221 113.866L17.3304 116.498ZM17.2364 116.305C19.0637 120.817 21.8659 126.558 25.9859 134.53L30.9989 131.939C26.8829 123.975 24.1874 118.435 22.4666 114.186L17.2364 116.305ZM25.9852 134.529C26.4914 135.51 26.6271 136.506 26.5993 137.642C26.5848 138.233 26.5287 138.816 26.464 139.486C26.4037 140.111 26.3296 140.868 26.3296 141.606H31.9725C31.9725 141.187 32.0155 140.705 32.0808 140.027C32.1419 139.394 32.2202 138.608 32.2404 137.781C32.282 136.083 32.0883 134.05 30.9996 131.941L25.9852 134.529ZM27.6215 139.236C27.1823 139.519 26.8114 139.838 26.5664 140.053L30.2909 144.292C30.5027 144.106 30.6126 144.021 30.6806 143.977L27.6215 139.236ZM26.5433 140.074C24.297 142.091 23.1897 144.315 22.6296 146.166C22.3533 147.08 22.215 147.886 22.1324 148.495C22.0926 148.788 22.0628 149.06 22.044 149.221C22.0173 149.448 22.0147 149.42 22.0371 149.327L27.5221 150.653C27.5944 150.354 27.6309 150.028 27.6483 149.879C27.6737 149.663 27.6933 149.48 27.7239 149.254C27.7823 148.825 27.8695 148.334 28.0309 147.8C28.3464 146.757 28.9639 145.484 30.314 144.272L26.5433 140.074ZM21.9602 149.885C21.9575 149.956 21.8863 152.064 21.8184 154.075C21.7844 155.083 21.7511 156.071 21.7274 156.774C21.7155 157.125 21.7061 157.405 21.7002 157.581C21.6972 157.669 21.6951 157.732 21.6941 157.764C21.6938 157.772 21.6936 157.778 21.6934 157.783C21.6934 157.785 21.6933 157.788 21.6932 157.79C21.6932 157.791 21.6931 157.793 21.693 157.796C21.693 157.797 21.6929 157.802 21.6928 157.804C21.6926 157.811 21.6918 157.857 21.6918 157.897C24.4387 160.702 27.331 158.025 27.332 158.003C27.3322 157.998 27.3325 157.991 27.3326 157.988C27.3327 157.985 27.3328 157.982 27.3328 157.981C27.3329 157.979 27.333 157.976 27.3331 157.974C27.3333 157.969 27.3335 157.963 27.3338 157.954L21.6942 157.761C21.6939 157.769 21.6937 157.775 21.6936 157.778C21.6936 157.78 21.6936 157.78 21.6936 157.78C21.6936 157.78 21.6936 157.779 21.6936 157.778C21.6936 157.778 21.6937 157.776 21.6938 157.775C21.6938 157.773 21.6941 157.765 21.6943 157.76C21.6953 157.739 24.5876 155.061 27.3345 157.867C27.3349 157.939 27.331 158.037 27.3338 157.951C27.3348 157.92 27.3369 157.859 27.3399 157.771C27.3458 157.595 27.3552 157.315 27.367 156.964C27.3907 156.261 27.424 155.273 27.4581 154.265C27.4921 153.257 27.5268 152.228 27.5534 151.443C27.5666 151.051 27.5778 150.72 27.5859 150.482C27.5899 150.364 27.5931 150.269 27.5954 150.202C27.5966 150.168 27.5975 150.141 27.5981 150.123C27.5989 150.101 27.5991 150.094 27.5991 150.095L21.9602 149.885ZM21.6926 157.836C21.6421 164.388 23.9911 168.59 27.6021 171.179C30.9515 173.58 35.104 174.346 37.9613 174.903L39.0412 169.364C35.957 168.763 33.0714 168.157 30.8903 166.593C28.9708 165.217 27.2969 162.859 27.3353 157.879L21.6926 157.836ZM38.0403 174.917C37.877 174.89 40.2067 175.487 43.8853 175.907C47.6963 176.343 53.3339 176.668 61.0326 176.312L60.772 170.676C53.3606 171.018 48.0249 170.701 44.5265 170.301C40.8956 169.886 39.5798 169.453 38.9621 169.35L38.0403 174.917ZM60.9023 176.315C61.2057 176.315 61.4788 176.283 61.5504 176.275L60.9633 170.663C60.9489 170.664 60.9297 170.666 60.9192 170.667C60.9062 170.669 60.8959 170.67 60.8867 170.671C60.8682 170.673 60.8591 170.673 60.8549 170.674C60.8475 170.674 60.8674 170.673 60.9023 170.673V176.315ZM61.6562 176.262C69.6892 175.113 74.9112 173.278 77.5325 168.57C78.7721 166.343 79.2659 163.743 79.5001 160.92C79.7338 158.102 79.7279 154.712 79.7639 150.835L74.1213 150.783C74.0839 154.799 74.0882 157.901 73.8765 160.453C73.6653 163 73.2581 164.647 72.6022 165.825C71.4325 167.926 68.8851 169.528 60.8575 170.676L61.6562 176.262ZM79.7623 150.907C79.8804 147.49 79.0328 144.337 77.0847 142.028L72.7715 145.666C73.5855 146.631 74.2067 148.286 74.1228 150.712L79.7623 150.907ZM77.7384 143.597C77.5236 141.18 77.7206 139.82 79.011 138.371L74.7972 134.618C71.9842 137.777 71.847 141.051 72.1178 144.097L77.7384 143.597ZM79.0089 138.374C81.4457 135.644 85.3901 130.651 87.9504 124.42C90.5205 118.166 91.7808 110.434 88.4204 102.524L83.2269 104.73C85.8091 110.808 84.9409 116.898 82.7311 122.276C80.5115 127.677 77.0249 132.123 74.7994 134.616L79.0089 138.374ZM79.5504 82.0772C80.9262 82.0843 81.7119 82.599 82.2959 83.442C82.9834 84.4341 83.47 86.039 83.6069 88.1947C83.8808 92.5045 82.6835 97.7534 81.0663 101.015L86.1217 103.522C88.1597 99.4118 89.5779 93.1784 89.2384 87.8368C89.0688 85.1667 88.4415 82.4036 86.9342 80.2282C85.3236 77.9036 82.8337 76.4512 79.5795 76.4345L79.5504 82.0772ZM81.6136 100.259C81.4708 100.399 81.3699 100.53 81.3546 100.55C81.3173 100.597 81.2853 100.641 81.2643 100.669C81.2217 100.728 81.1754 100.793 81.1357 100.85C81.0461 100.978 80.9507 101.116 80.8178 101.304C80.5612 101.667 80.2038 102.162 79.7568 102.736C78.8559 103.893 77.6175 105.338 76.1511 106.648C73.0627 109.407 69.8293 110.849 66.7655 109.634L64.686 114.88C70.9071 117.346 76.46 113.939 79.9106 110.856C81.7137 109.245 83.183 107.521 84.2093 106.203C84.7259 105.539 85.1371 104.97 85.4266 104.56C85.5667 104.362 85.6887 104.186 85.7576 104.087C85.7971 104.031 85.8152 104.006 85.8219 103.996C85.8892 103.904 85.7629 104.092 85.5745 104.278L81.6136 100.259ZM66.7652 109.634C65.3784 109.084 64.0825 107.973 63.1046 106.586C62.1109 105.176 61.631 103.747 61.5874 102.784L55.9504 103.04C56.0545 105.339 57.0476 107.788 58.4926 109.837C59.9535 111.91 62.0622 113.84 64.6862 114.88L66.7652 109.634ZM58.8663 105.732C63.9942 105.555 67.3531 103.865 70.4582 101.035L66.6569 96.8643C64.4399 98.8851 62.3298 99.966 58.6716 100.092L58.8663 105.732ZM70.4599 101.033C74.8301 97.043 75.1897 91.6659 74.8854 86.8929L69.2539 87.252C69.5361 91.6772 69.0162 94.7101 66.6552 96.8658L70.4599 101.033ZM74.417 88.6378L79.9784 80.2985L75.2837 77.1677L69.7223 85.507L74.417 88.6378ZM76.5257 81.3289C76.3845 81.2688 76.2758 81.205 76.3422 81.2417C76.3578 81.2503 76.4295 81.2905 76.5048 81.3305C76.672 81.4193 76.9056 81.5346 77.2007 81.647C77.7996 81.8753 78.5673 82.0598 79.5144 82.0768L79.6156 76.4349C79.3643 76.4304 79.2408 76.3858 79.2102 76.3741C79.1904 76.3666 79.1748 76.3592 79.1524 76.3473C79.1329 76.337 79.1248 76.3323 79.0748 76.3046C79.0561 76.2943 79.0171 76.2727 78.973 76.2496C78.9343 76.2294 78.847 76.1842 78.7365 76.1372L76.5257 81.3289ZM71.9784 71.3742C72.7453 72.2061 72.9579 72.9739 73.0328 73.7685C73.0765 74.2328 73.07 74.6537 73.0729 75.247C73.0753 75.7244 73.0767 76.5489 73.2915 77.3403L78.7373 75.8621C78.7448 75.8897 78.7185 75.7882 78.7157 75.2193C78.7135 74.7662 78.7243 74.0205 78.6507 73.2392C78.4909 71.5429 77.9301 69.5049 76.1272 67.5494L71.9784 71.3742ZM73.667 75.0358L68.382 82.9609L73.0766 86.0917L78.3617 78.1666L73.667 75.0358ZM73.3037 83.3718C71.0962 78.4496 66.8727 74.8651 61.6143 73.3787L60.0793 78.8087C63.7781 79.8543 66.6508 82.327 68.1549 85.6809L73.3037 83.3718ZM63.3012 77.4852C65.105 74.3037 66.7683 70.2749 67.8946 67.3185L62.6215 65.3095C61.5194 68.2024 59.9781 71.9053 58.3924 74.7021L63.3012 77.4852ZM63.9375 68.8073C64.8774 69.3051 65.9613 69.4217 66.5636 69.4855C67.3645 69.5702 67.9315 69.6012 68.6427 69.7156C69.9127 69.9198 71.018 70.3163 71.9636 71.358L76.142 67.5656C74.0167 65.224 71.5071 64.4609 69.5387 64.1443C68.6307 63.9983 67.6726 63.9285 67.1575 63.874C66.444 63.7984 66.4211 63.7373 66.5785 63.8207L63.9375 68.8073ZM25.4401 74.4459C25.5781 72.0578 25.1826 69.6434 24.2793 67.4627L19.066 69.6223C19.6338 70.9929 19.8971 72.5555 19.8067 74.1204L25.4401 74.4459ZM24.2782 67.4602C16.5756 48.9164 14.8406 37.1868 15.6423 30.8323C16.0468 27.6268 17.0241 26.2982 17.6278 25.8578C18.0317 25.5632 18.6583 25.379 19.7889 26.0189L22.5683 21.108C20.0149 19.6628 16.9214 19.3885 14.3024 21.299C11.8832 23.0637 10.5348 26.2354 10.0439 30.1259C9.055 37.9634 11.2511 50.8083 19.0671 69.6248L24.2782 67.4602ZM19.7694 26.0078C21.3132 26.8979 23.0513 29.1907 24.7685 32.9378C26.4253 36.5534 27.8445 41.0259 29.0318 45.598C31.4205 54.7968 32.7267 63.7623 33.2894 66.561L38.8215 65.4488C38.3479 63.0929 36.9279 53.5546 34.4935 44.1797C33.2692 39.465 31.7525 34.6333 29.8983 30.5871C28.1045 26.6724 25.7564 22.946 22.5879 21.1192L19.7694 26.0078ZM35.5072 63.2372C33.3643 63.6617 32.1795 64.2231 31.8389 64.4063L34.5122 69.3758C34.3447 69.4658 34.9964 69.0909 36.6036 68.7726L35.5072 63.2372ZM31.8322 64.4099C29.8533 65.4813 29.0995 67.963 30.1956 69.9576L35.141 67.24C35.5664 68.0141 35.267 68.9671 34.5188 69.3722L31.8322 64.4099ZM30.1945 69.9555C31.2812 71.937 33.7571 72.6485 35.7268 71.5859L33.0474 66.6197C33.7863 66.2211 34.7261 66.4836 35.1421 67.2421L30.1945 69.9555ZM35.7418 71.5777C36.3165 71.2632 37.4276 70.9896 39.1046 70.8943C40.7059 70.8033 42.5228 70.8881 44.2818 71.0557C46.0293 71.2221 47.6559 71.4639 48.8594 71.6656C49.4592 71.7661 49.9504 71.8561 50.2962 71.9211C50.4713 71.954 50.6045 71.9796 50.7089 71.9995C50.7571 72.0086 50.8076 72.0182 50.8493 72.0257C50.8685 72.0292 50.9015 72.0351 50.9379 72.0409C50.9549 72.0436 50.9898 72.0491 51.033 72.0547C51.0546 72.0575 51.0915 72.062 51.1373 72.0662C51.1699 72.0692 51.2701 72.0783 51.3984 72.0783V66.4354C51.5258 66.4354 51.6246 66.4444 51.6555 66.4472C51.6995 66.4513 51.7344 66.4556 51.7534 66.458C51.7917 66.4629 51.8202 66.4675 51.8293 66.4689C51.85 66.4722 51.8614 66.4744 51.8534 66.4729C51.8406 66.4706 51.8141 66.4657 51.7638 66.4561C51.6712 66.4385 51.5218 66.4098 51.3385 66.3753C50.9673 66.3055 50.4381 66.2086 49.7922 66.1003C48.5042 65.8845 46.7381 65.6212 44.8168 65.4382C42.907 65.2563 40.779 65.1472 38.7845 65.2605C36.8657 65.3695 34.7301 65.6986 33.0324 66.6278L35.7418 71.5777ZM51.3984 72.0783C56.2502 72.0783 57.0839 65.0349 52.2496 64.0071L51.0761 69.5266C50.7352 69.4541 50.3518 69.2239 50.0962 68.8333C49.8672 68.4834 49.8144 68.1205 49.8451 67.8311C49.8759 67.5417 50.0037 67.1996 50.2991 66.9071C50.6288 66.5807 51.0499 66.4354 51.3984 66.4354V72.0783ZM52.2509 64.0073C50.6532 63.6669 49.1724 63.412 47.7884 63.217L47.001 68.8047C48.2614 68.9823 49.6123 69.2147 51.0749 69.5263L52.2509 64.0073ZM49.364 68.0313C49.5338 67.8507 49.7689 67.5354 49.8447 67.4105C49.8903 67.3275 49.961 67.184 49.9878 67.1237C50.0394 67.0041 50.0716 66.9061 50.0852 66.8636C50.1151 66.7705 50.1346 66.6932 50.1423 66.6623C50.1606 66.5889 50.1756 66.5188 50.185 66.4731C50.2059 66.3725 50.23 66.2464 50.2555 66.1089C50.3075 65.8282 50.378 65.4301 50.4636 64.9364C50.6353 63.9456 50.8742 62.5334 51.16 60.823C51.732 57.4007 52.4951 52.7664 53.2926 47.8822C54.8862 38.1213 56.6218 27.3304 57.2415 23.2162L51.6616 22.3757C51.0481 26.4489 49.3184 37.2039 47.7234 46.9729C46.9266 51.8536 46.1647 56.4802 45.5943 59.8929C45.309 61.6001 45.0724 62.9989 44.9036 63.9725C44.819 64.4609 44.7529 64.8334 44.707 65.0815C44.6835 65.2084 44.6683 65.2863 44.6601 65.3255C44.6551 65.3497 44.6581 65.3335 44.667 65.2974C44.6701 65.2851 44.6856 65.2224 44.7122 65.1396C44.7242 65.1023 44.7549 65.0085 44.8051 64.8919C44.8312 64.8331 44.9013 64.6909 44.9464 64.6089C45.0216 64.485 45.2562 64.1705 45.4255 63.9903L49.364 68.0313ZM57.2413 23.2174C57.7955 19.55 60.3327 16.8036 62.9808 15.8033C64.2801 15.3125 65.4793 15.2854 66.4466 15.6142C67.3693 15.9279 68.337 16.6493 69.0958 18.1665L74.1427 15.6425C72.7901 12.938 70.7336 11.1117 68.263 10.2717C65.8371 9.44696 63.2743 9.66037 60.9868 10.5245C56.4613 12.234 52.526 16.655 51.6618 22.3744L57.2413 23.2174ZM69.0959 18.1668C69.5609 19.0962 69.8242 19.8499 69.9151 20.9714C70.0142 22.1944 69.914 23.9513 69.4325 26.875C68.4663 32.7421 66.1074 42.5322 61.6397 60.6072L67.1177 61.9613C71.5576 43.9984 73.9885 33.9364 75.0004 27.792C75.508 24.7099 75.6939 22.4212 75.5395 20.5156C75.3769 18.5085 74.8471 17.0506 74.1425 15.6422L69.0959 18.1668ZM61.7004 60.3971C61.7012 60.3947 61.6538 60.5364 61.5634 60.7986C61.4739 61.0584 61.3433 61.4328 61.1776 61.8965C60.8458 62.8248 60.3747 64.1057 59.8113 65.5369C58.6667 68.4444 57.2045 71.8062 55.7987 74.1207L60.6216 77.0501C63.8937 71.663 67.0451 62.2072 67.057 62.1714L61.7004 60.3971ZM58.5057 72.7795C56.737 72.5932 54.9103 72.6395 53.0816 72.985L54.1292 78.5297C55.3727 78.2948 56.6448 78.2575 57.9146 78.3913L58.5057 72.7795ZM53.0799 72.9853C44.2199 74.665 36.8399 80.0806 31.0624 86.8478C25.2803 93.6205 20.9533 101.914 18.1953 109.747L23.5179 111.621C26.0955 104.3 30.1114 96.6524 35.354 90.5117C40.6013 84.3656 46.9279 79.895 54.1309 78.5294L53.0799 72.9853ZM23.4739 109.63C23.4796 109.644 23.4844 109.657 23.4881 109.666C23.4918 109.676 23.4949 109.684 23.497 109.69C23.4992 109.696 23.5008 109.7 23.5017 109.702C23.5024 109.704 23.503 109.706 23.5026 109.705C23.5024 109.704 23.5012 109.701 23.4999 109.697C23.4984 109.693 23.4962 109.687 23.4934 109.68C23.4907 109.673 23.487 109.663 23.4827 109.652C23.4784 109.641 23.473 109.627 23.4667 109.611L18.2321 111.719C18.2264 111.704 18.2216 111.692 18.2179 111.682C18.2142 111.673 18.2112 111.665 18.209 111.659C18.2068 111.653 18.2052 111.649 18.2044 111.647C18.2036 111.645 18.203 111.643 18.2035 111.644C18.2036 111.645 18.2048 111.648 18.2062 111.651C18.2076 111.655 18.2098 111.661 18.2126 111.669C18.2154 111.676 18.219 111.686 18.2233 111.697C18.2276 111.708 18.233 111.722 18.2393 111.738L23.4739 109.63ZM23.6591 110.922L23.6603 110.909L18.0409 110.395L18.0397 110.408L23.6591 110.922ZM23.5376 109.791C22.0783 105.235 22.1664 102.365 22.8255 97.6646C23.5053 92.8161 24.7931 86.1056 25.4405 74.4395L19.8063 74.1268C19.176 85.4859 17.9421 91.8543 17.2373 96.8811C16.5118 102.056 16.3524 105.857 18.1637 111.512L23.5376 109.791ZM25.0749 115.08C25.3535 113.565 27.8767 105.819 32.9441 97.9667C38.0192 90.1021 45.2276 82.7803 54.6052 81.0022L53.554 75.4581C41.9059 77.6667 33.5822 86.5708 28.2027 94.9071C22.8156 103.255 19.9618 111.686 19.5252 114.059L25.0749 115.08ZM54.6063 81.0019C59.3268 80.1049 63.3175 82.3938 65.3192 85.6822C67.3028 88.9408 67.1954 92.8482 64.1188 95.6698L67.9328 99.8285C73.3494 94.861 73.2577 87.8708 70.1393 82.7481C67.039 77.6552 60.81 74.0791 53.5528 75.4583L54.6063 81.0019ZM64.3721 95.4631C61.6954 97.3994 56.3581 98.3343 47.6056 97.2988L46.9426 102.903C55.8947 103.962 63.1516 103.311 67.6795 100.035L64.3721 95.4631ZM47.6081 97.2991C45.3914 97.0348 43.3325 98.609 43.0648 100.87L48.6685 101.533C48.5642 102.414 47.7746 103.002 46.9401 102.902L47.6081 97.2991ZM43.0651 100.867C42.9385 101.926 43.1704 103.089 44.0151 104.027C44.7531 104.847 45.6817 105.175 46.2746 105.328C46.8971 105.489 47.5338 105.549 48.0122 105.583C48.6763 105.631 48.8277 105.626 49.3416 105.668L49.8029 100.044C49.5428 100.022 49.2843 100.007 49.0565 99.9941C48.8179 99.9805 48.6163 99.9693 48.4197 99.9551C48.0057 99.9251 47.7898 99.8916 47.6831 99.8641C47.547 99.829 47.8698 99.875 48.2092 100.252C48.3979 100.462 48.5405 100.719 48.6162 100.994C48.6882 101.255 48.6781 101.453 48.6681 101.537L43.0651 100.867ZM46.7517 102.787C46.7268 103.807 46.2719 107.86 40.1644 113.188L43.8738 117.44C51.0817 111.153 52.3264 105.645 52.3929 102.925L46.7517 102.787ZM40.1655 113.187C39.2681 113.969 38.7527 115.053 38.7499 116.221C38.7472 117.316 39.1927 118.27 39.7964 118.953C40.4005 119.636 41.2884 120.19 42.3643 120.327C43.5094 120.473 44.6472 120.115 45.5445 119.333L41.8376 115.079C42.1051 114.846 42.5613 114.663 43.0778 114.729C43.5251 114.786 43.8374 115.004 44.0233 115.215C44.2089 115.424 44.3938 115.769 44.3927 116.235C44.3914 116.773 44.1397 117.209 43.8727 117.441L40.1655 113.187ZM45.5458 119.332C53.2676 112.596 54.8145 106.512 54.9164 103.096L49.2761 102.928C49.2242 104.667 48.4565 109.305 41.8363 115.08L45.5458 119.332ZM51.9834 105.831C53.5219 105.893 54.9876 105.888 56.3831 105.821L56.11 100.185C54.8926 100.243 53.5938 100.248 52.2091 100.193L51.9834 105.831ZM53.428 103.13C53.552 105.867 54.6537 108.77 56.3796 111.244C58.1178 113.735 60.619 115.978 63.7452 117.218L65.8253 111.973C63.901 111.209 62.2284 109.765 61.0076 108.015C59.7745 106.247 59.1322 104.356 59.0651 102.875L53.428 103.13ZM63.7446 117.218C68.3785 119.057 72.8368 118.251 76.6577 116.219C80.4095 114.223 83.656 111.002 86.2297 107.702L81.7797 104.232C79.4711 107.193 76.7991 109.752 74.0073 111.237C71.2847 112.685 68.5745 113.063 65.826 111.973L63.7446 117.218ZM81.2367 105.42C81.1614 105.801 81.1848 106.107 81.1935 106.209C81.2053 106.347 81.225 106.457 81.2369 106.517C81.2606 106.638 81.2874 106.732 81.2982 106.769C81.3221 106.851 81.346 106.92 81.3537 106.942C81.3715 106.993 81.3971 107.063 81.4087 107.095C81.4407 107.183 81.482 107.298 81.531 107.448C81.6289 107.747 81.7637 108.203 81.8902 108.803C82.1432 110.002 82.3667 111.792 82.1851 114.06C81.8257 118.549 79.859 125.16 72.9094 132.943L77.1185 136.702C84.8293 128.066 87.3454 120.313 87.81 114.511C88.0404 111.633 87.7611 109.296 87.4116 107.638C87.2368 106.809 87.0453 106.155 86.8939 105.692C86.8182 105.461 86.754 105.282 86.7126 105.168C86.7009 105.136 86.6961 105.123 86.6888 105.103C86.6823 105.085 86.6814 105.082 86.6829 105.086C86.6838 105.089 86.6872 105.099 86.692 105.113C86.6962 105.126 86.7057 105.155 86.717 105.194C86.7255 105.224 86.7506 105.311 86.7734 105.427C86.7848 105.485 86.8042 105.592 86.8158 105.728C86.8244 105.829 86.8478 106.133 86.7726 106.513L81.2367 105.42ZM72.8714 132.987C72.8116 133.056 72.6608 133.23 72.5207 133.422L77.0769 136.751C77.0644 136.768 77.0615 136.771 77.0775 136.751C77.0947 136.73 77.1155 136.706 77.1564 136.658L72.8714 132.987ZM72.6624 133.243C72.6141 133.299 72.5757 133.348 72.5485 133.384C72.5219 133.419 72.5015 133.447 72.4926 133.46C72.4881 133.466 72.4842 133.472 72.4837 133.472C72.4822 133.474 72.4842 133.472 72.4865 133.468C72.4915 133.461 72.5063 133.441 72.5265 133.414L77.0302 136.814C77.0539 136.782 77.0723 136.757 77.0806 136.745C77.0846 136.739 77.0883 136.734 77.0885 136.734C77.0896 136.732 77.0874 136.735 77.0845 136.739C77.0789 136.747 77.0618 136.771 77.0386 136.802C77.0148 136.833 76.9798 136.877 76.9351 136.929L72.6624 133.243ZM72.8494 133.055C72.9482 132.962 73.0315 132.899 73.0667 132.873C73.0843 132.86 73.0971 132.851 73.0951 132.852C73.0853 132.859 73.1018 132.848 73.087 132.858C73.0821 132.862 73.0737 132.868 73.0639 132.875C73.0004 132.92 72.7149 133.122 72.4441 133.46L76.8506 136.985C76.7299 137.136 76.6126 137.248 76.5235 137.325C76.4392 137.398 76.3708 137.447 76.3582 137.456C76.3546 137.459 76.3449 137.466 76.3613 137.454C76.3708 137.447 76.3951 137.43 76.424 137.409C76.4819 137.366 76.5874 137.285 76.7073 137.173L72.8494 133.055ZM72.4543 133.447C72.2903 133.65 72.032 133.828 71.4344 133.884C70.7802 133.945 69.9215 133.829 68.946 133.549C66.9985 132.99 65.3205 132 65.3742 132.033L62.4508 136.859C62.5814 136.939 64.7497 138.216 67.3899 138.973C68.7082 139.351 70.3286 139.655 71.9605 139.502C73.6488 139.344 75.4833 138.674 76.8404 136.998L72.4543 133.447ZM65.3594 132.024C63.4382 130.876 60.935 131.48 59.7628 133.407L64.5838 136.34C64.1351 137.078 63.1873 137.299 62.4656 136.868L65.3594 132.024ZM59.7628 133.407C58.5841 135.345 59.216 137.862 61.1534 139.022L64.0514 134.18C64.7917 134.623 65.0389 135.592 64.5837 136.34L59.7628 133.407ZM61.1462 139.017C61.3569 139.144 62.6082 139.881 64.3807 140.593C66.1196 141.291 68.5699 142.053 71.123 142.053V136.41C69.6026 136.41 67.9225 135.934 66.4843 135.357C65.0798 134.792 64.1075 134.214 64.0586 134.184L61.1462 139.017ZM71.123 142.053C71.7988 142.053 72.4798 141.997 73.1582 141.878L72.1792 136.32C71.8408 136.38 71.4881 136.41 71.123 136.41V142.053ZM69.9486 138.349C69.6271 139.516 69.4716 140.711 69.4568 141.899L75.0993 141.969C75.1085 141.225 75.2055 140.514 75.3887 139.849L69.9486 138.349ZM73.2884 139.3C72.2635 138.907 71.1515 138.682 69.9923 138.648L69.8257 144.289C70.3636 144.305 70.8478 144.407 71.2677 144.568L73.2884 139.3ZM70.0676 138.651C53.7696 137.734 45.4382 136.944 40.4679 136.598C38.0277 136.429 36.2664 136.355 34.8002 136.474C33.2179 136.603 32.038 136.949 30.7326 137.488L32.8859 142.704C33.779 142.335 34.3823 142.17 35.2577 142.099C36.2491 142.018 37.6201 142.057 40.0766 142.227C44.8997 142.563 53.4196 143.366 69.7504 144.285L70.0676 138.651ZM34.6235 140.298C34.7956 137.9 34.8018 136.065 34.4941 134.393C34.1764 132.666 33.557 131.293 32.7698 129.802C31.2561 126.935 28.804 123.052 24.9128 113.504L19.6873 115.634C23.7134 125.513 26.3506 129.729 27.7796 132.436C28.4637 133.732 28.779 134.515 28.9444 135.414C29.1199 136.368 29.1577 137.628 28.9951 139.894L34.6235 140.298ZM71.5851 150.724C71.5498 154.64 71.5649 157.558 71.3954 159.901C71.2255 162.251 70.8875 163.605 70.3895 164.495C69.9611 165.261 69.282 165.919 67.7987 166.53C66.2167 167.181 63.9043 167.701 60.4131 168.199L61.2087 173.785C64.7779 173.277 67.6778 172.682 69.9472 171.748C72.3153 170.773 74.1266 169.374 75.3146 167.249C76.4332 165.249 76.8378 162.878 77.0236 160.308C77.2099 157.731 77.1939 154.533 77.2277 150.775L71.5851 150.724ZM60.71 168.172C53.3822 168.435 46.3966 168.386 39.5945 166.901L38.3914 172.415C45.9165 174.057 53.489 174.077 60.9118 173.812L60.71 168.172ZM39.531 166.888C35.8151 166.166 33.5009 165.504 32.0341 164.332C30.8374 163.375 29.8389 161.755 29.8668 157.921L24.2241 157.88C24.1883 162.807 25.5336 166.36 28.5115 168.74C31.2194 170.904 34.9108 171.739 38.4548 172.428L39.531 166.888ZM29.8584 158.118C29.9991 156.303 29.9997 154.622 30.0138 153.201C30.0284 151.727 30.0581 150.577 30.2097 149.569C30.3557 148.599 30.6005 147.881 30.9772 147.283C31.3477 146.695 31.9434 146.07 33.0139 145.431L30.1228 140.585C28.4138 141.605 27.1202 142.82 26.2038 144.274C25.2935 145.718 24.8537 147.241 24.6297 148.729C24.4112 150.181 24.3854 151.707 24.3712 153.145C24.3565 154.635 24.3551 156.1 24.2324 157.683L29.8584 158.118ZM32.9986 145.44C33.8367 144.947 34.3575 144.752 35.1188 144.653C36.0344 144.533 37.3512 144.549 39.8286 144.723C44.6643 145.063 53.2637 145.946 69.6357 146.795L69.9282 141.16C53.6062 140.313 45.2473 139.447 40.224 139.094C37.7718 138.922 35.934 138.856 34.3902 139.057C32.692 139.278 31.4485 139.805 30.1381 140.576L32.9986 145.44ZM69.6926 146.798C70.3863 146.82 70.7067 147.065 70.972 147.489C71.3266 148.056 71.5985 149.051 71.5857 150.422L77.2283 150.475C77.2469 148.485 76.883 146.298 75.7555 144.496C74.5388 142.552 72.5309 141.242 69.8713 141.158L69.6926 146.798ZM71.5856 150.442L71.585 150.743L77.2278 150.755L77.2284 150.454L71.5856 150.442Z" fill="#B4A8E2" mask="url(#path-1-outside-1_253_6)"/>
</svg>
