<svg width="279" height="276" viewBox="0 0 279 276" fill="none" xmlns="http://www.w3.org/2000/svg">
<path d="M141.336 162.277C138.899 163.2 136.31 163.673 133.651 163.673C128.787 163.673 124.174 162.051 120.361 159.092C120.353 159.098 120.357 159.114 120.347 159.122C119.681 159.803 116.943 158.098 114.22 155.311C113.599 154.674 113.039 154.036 112.544 153.424C112.619 154.22 112.661 155.073 112.661 155.976C112.661 159.915 111.9 163.105 110.957 163.105C110.017 163.105 109.252 159.914 109.252 155.976C109.252 155.075 109.299 154.22 109.37 153.424C108.872 154.038 108.316 154.675 107.693 155.311C104.974 158.096 102.234 159.801 101.569 159.122C100.905 158.439 102.567 155.628 105.284 152.846C105.908 152.209 106.53 151.633 107.127 151.126C106.352 151.199 105.518 151.245 104.637 151.245C100.795 151.245 97.6778 150.459 97.6778 149.497C97.6778 148.535 100.795 147.751 104.637 147.751C105.516 147.751 106.352 147.795 107.127 147.876C106.527 147.363 105.906 146.789 105.284 146.153C102.567 143.368 100.905 140.555 101.569 139.874C102.234 139.193 104.976 140.894 107.693 143.685C108.316 144.322 108.872 144.96 109.37 145.572C109.294 144.778 109.252 143.927 109.252 143.026C109.252 139.085 110.017 135.893 110.957 135.893C111.306 135.893 111.624 136.331 111.894 137.075C112.123 135.739 112.43 134.419 112.901 133.132C105.189 129.523 100.032 121.605 100.032 112.522C100.032 103.432 105.187 95.5121 112.907 91.9067C112.826 91.6784 112.783 91.4399 112.71 91.2095C112.133 91.1509 111.551 91.1166 110.959 91.1166C102.159 91.1166 94.8807 97.7167 93.5221 106.346C86.614 101.227 76.9109 101.835 70.6911 108.213C64.4653 114.591 63.8758 124.54 68.8715 131.623C60.4493 133.011 54.0029 140.472 54.007 149.495C54.007 158.516 60.4478 165.977 68.8674 167.369C63.8679 174.454 64.4593 184.399 70.6871 190.779C76.9088 197.165 86.6104 197.773 93.5241 192.65C94.8785 201.283 102.155 207.879 110.962 207.879C119.764 207.879 127.046 201.275 128.401 192.642C135.315 197.767 145.014 197.163 151.24 190.777C155.49 186.42 157.107 180.402 156.117 174.768C149.572 173.113 144.123 168.544 141.336 162.277ZM86.7941 124.724C88.1032 123.386 91.3718 124.562 94.0964 127.353C96.817 130.147 97.9663 133.498 96.6573 134.84C95.3522 136.18 92.0816 135.004 89.355 132.207C86.6364 129.416 85.4851 126.061 86.7941 124.724ZM76.7852 149.495C76.7852 147.604 79.9079 146.062 83.7579 146.062C87.6079 146.062 90.7327 147.604 90.7327 149.495C90.7327 151.389 87.608 152.929 83.7579 152.929C79.9079 152.929 76.7852 151.389 76.7852 149.495ZM94.0964 171.638C91.3719 174.43 88.1033 175.611 86.7941 174.267C85.4851 172.927 86.6344 169.574 89.355 166.781C92.0815 163.993 95.3502 162.814 96.6573 164.156C97.9663 165.5 96.817 168.847 94.0964 171.638ZM110.958 184.524C109.107 184.524 107.612 181.321 107.612 177.379C107.612 173.426 109.107 170.227 110.958 170.227C112.809 170.227 114.305 173.428 114.305 177.379C114.305 181.324 112.809 184.524 110.958 184.524ZM135.124 174.269C133.819 175.607 130.55 174.432 127.824 171.64C125.103 168.851 123.954 165.502 125.261 164.158C126.57 162.817 129.838 163.995 132.561 166.784C135.282 169.576 136.433 172.929 135.124 174.269Z" fill="black"/>
<path d="M217.475 111.77C217.473 102.749 211.179 95.2929 202.945 93.8987C207.831 86.8121 207.245 76.8721 201.162 70.4906C195.079 64.1111 185.595 63.5049 178.835 68.6194C177.511 59.9928 170.393 53.3929 161.786 53.3929C153.183 53.3929 146.065 59.9865 144.737 68.6194C137.982 63.4968 128.497 64.1091 122.414 70.4845C116.326 76.866 115.75 86.8102 120.635 93.8927C112.4 95.2769 106.097 102.74 106.101 111.768C106.101 120.789 112.396 128.251 120.631 129.64C115.744 136.724 116.321 146.668 122.41 153.056C128.493 159.433 137.977 160.046 144.737 154.927C146.061 163.554 153.179 170.156 161.786 170.156C170.393 170.156 177.515 163.552 178.835 154.913C185.595 160.044 195.077 159.434 201.166 153.054C207.251 146.669 207.833 136.723 202.941 129.638C211.176 128.25 217.475 120.79 217.475 111.77ZM178.276 89.6309C180.938 86.8403 184.135 85.6662 185.415 87.004C186.691 88.3437 185.566 91.6961 182.908 94.4869C180.246 97.2775 177.048 98.4536 175.768 97.1138C174.492 95.77 175.616 92.4237 178.276 89.6309ZM161.787 76.7428C163.594 76.7428 165.062 79.9456 165.062 83.8919C165.062 87.8383 163.594 91.0432 161.787 91.0432C159.977 91.0432 158.513 87.8383 158.513 83.8919C158.513 79.9456 159.979 76.7428 161.787 76.7428ZM138.157 87.002C139.437 85.6643 142.631 86.8383 145.297 89.6289C147.957 92.4216 149.081 95.7699 147.801 97.1118C146.523 98.4515 143.327 97.2755 140.663 94.4848C138.003 91.6942 136.879 88.3418 138.157 87.002ZM128.371 111.774C128.371 109.877 131.426 108.341 135.191 108.341C138.955 108.341 142.012 109.877 142.012 111.774C142.012 113.666 138.955 115.205 135.191 115.205C131.424 115.205 128.371 113.668 128.371 111.774ZM145.297 133.918C142.633 136.706 139.437 137.884 138.157 136.543C136.878 135.205 138.001 131.852 140.663 129.062C143.325 126.267 146.523 125.089 147.801 126.429C149.081 127.773 147.957 131.125 145.297 133.918ZM161.787 146.804C159.977 146.804 158.513 143.601 158.513 139.652C158.513 135.708 159.977 132.507 161.787 132.507C163.594 132.507 165.062 135.708 165.062 139.652C165.062 143.601 163.594 146.804 161.787 146.804ZM167.963 113.52C167.104 113.52 166.292 113.476 165.535 113.395C166.121 113.908 166.728 114.478 167.335 115.115C169.991 117.901 171.616 120.71 170.967 121.395C170.317 122.076 167.638 120.373 164.978 117.588C164.37 116.945 163.825 116.313 163.337 115.697C163.41 116.495 163.453 117.346 163.453 118.251C163.453 122.187 162.709 125.382 161.787 125.382C160.866 125.382 160.12 122.187 160.12 118.251C160.12 117.348 160.166 116.495 160.234 115.697C159.75 116.317 159.203 116.948 158.594 117.588C155.941 120.373 153.256 122.076 152.606 121.395C151.957 120.71 153.582 117.901 156.238 115.117C156.849 114.48 157.456 113.908 158.042 113.395C157.283 113.474 156.469 113.52 155.608 113.52C151.851 113.52 148.805 112.736 148.805 111.772C148.805 110.806 151.851 110.024 155.608 110.024C156.467 110.024 157.283 110.067 158.042 110.142C157.456 109.634 156.849 109.061 156.238 108.424C153.586 105.637 151.959 102.827 152.606 102.145C153.258 101.464 155.939 103.166 158.594 105.95C159.203 106.589 159.75 107.226 160.234 107.838C160.163 107.046 160.12 106.193 160.12 105.292C160.12 101.349 160.868 98.1585 161.787 98.1585C162.707 98.1585 163.453 101.349 163.453 105.292C163.453 106.193 163.41 107.048 163.339 107.842C163.825 107.228 164.37 106.591 164.978 105.955C167.638 103.166 170.319 101.464 170.967 102.145C171.618 102.826 169.993 105.635 167.333 108.424C166.726 109.061 166.117 109.634 165.533 110.142C166.288 110.065 167.104 110.024 167.963 110.024C171.724 110.024 174.768 110.804 174.768 111.772C174.768 112.738 171.724 113.52 167.963 113.52ZM185.415 136.542C184.136 137.884 180.94 136.706 178.276 133.918C175.616 131.127 174.492 127.772 175.768 126.431C177.048 125.089 180.244 126.267 182.908 129.064C185.566 131.852 186.692 135.205 185.415 136.542ZM188.382 115.206C184.617 115.206 181.564 113.666 181.564 111.774C181.564 109.877 184.618 108.341 188.382 108.341C192.146 108.341 195.2 109.877 195.2 111.774C195.2 113.668 192.146 115.206 188.382 115.206Z" fill="black"/>
<path d="M25.4563 159.049L2.20544 162.08L1.1658 154.225C0.925418 152.409 1.03842 150.878 1.5048 149.632C1.96362 148.387 2.69334 147.414 3.69397 146.714C4.6946 146.014 5.87988 145.575 7.2498 145.397C8.61973 145.218 9.87155 145.34 11.0053 145.761C12.139 146.183 13.0852 146.934 13.844 148.012C14.5951 149.092 15.0899 150.532 15.3283 152.333L16.1696 158.689L13.6266 159.021L12.7972 152.756C12.633 151.515 12.3191 150.54 11.8557 149.83C11.3912 149.113 10.8034 148.628 10.0923 148.374C9.37264 148.114 8.54733 148.045 7.61638 148.166C6.68544 148.287 5.89485 148.567 5.24461 149.006C4.59437 149.445 4.13061 150.071 3.85334 150.885C3.56849 151.699 3.50921 152.735 3.67547 153.991L4.33051 158.939L25.0837 156.234L25.4563 159.049ZM13.5633 149.469L23.2508 142.387L23.6835 145.656L13.984 152.647L13.5633 149.469Z" fill="black"/>
<path d="M2.81716 108.347L3.25881 105.542L18.6003 107.921C20.1843 108.166 21.5397 108.759 22.6667 109.698C23.7873 110.629 24.5996 111.824 25.1037 113.285C25.6002 114.745 25.7053 116.383 25.4192 118.2C25.1331 120.017 24.5293 121.546 23.6078 122.785C22.6787 124.024 21.5369 124.92 20.1824 125.475C18.8216 126.021 17.3492 126.171 15.7652 125.926L0.423706 123.547L0.865355 120.742L15.9806 123.086C17.112 123.261 18.1581 123.168 19.1189 122.808C20.0722 122.446 20.8739 121.844 21.5241 121.002C22.168 120.152 22.5914 119.082 22.7944 117.793C22.9974 116.504 22.923 115.357 22.5713 114.352C22.212 113.347 21.6334 112.531 20.8356 111.905C20.0315 111.271 19.0638 110.866 17.9324 110.69L2.81716 108.347Z" fill="black"/>
<path d="M31.3062 94.6988L10.0684 84.762L11.2869 82.1974L21.8229 87.127L21.9408 86.8788L15.9255 72.4356L17.5175 69.0851L22.8736 82.4615L38.7553 79.0219L37.2812 82.1242L23.9104 84.8679L25.6391 88.9125L32.5248 92.1342L31.3062 94.6988Z" fill="black"/>
<path d="M39.1591 39.064L41.0527 36.9482L52.7001 47.2126C53.9027 48.2724 54.7244 49.5001 55.1653 50.8958C55.6056 52.2808 55.6422 53.722 55.275 55.2195C54.9022 56.7119 54.1024 58.1435 52.8756 59.5141C51.6489 60.8848 50.3108 61.842 48.8614 62.3857C47.4063 62.9244 45.9572 63.0614 44.5141 62.7969C43.0704 62.5216 41.7473 61.8541 40.5448 60.7943L28.8973 50.53L30.7909 48.4142L42.2665 58.5272C43.1255 59.2842 44.0579 59.7702 45.0639 59.9852C46.0641 60.1952 47.0665 60.1224 48.0712 59.7666C49.0752 59.4001 50.0124 58.7306 50.8829 57.758C51.7533 56.7854 52.3126 55.7828 52.5607 54.7502C52.8031 53.7125 52.7577 52.7162 52.4243 51.7611C52.0902 50.7953 51.4937 49.9339 50.6348 49.177L39.1591 39.064Z" fill="black"/>
<path d="M72.8292 41.5499L60.325 21.7148L62.7373 20.2174L73.8983 37.9217L83.1587 32.1734L84.5019 34.3041L72.8292 41.5499Z" fill="black"/>
<path d="M101.73 27.1677L98.8617 27.9657L100.78 3.09378L103.603 2.30805L118.274 22.5638L115.407 23.3618L103.289 6.24603L103.112 6.29514L101.73 27.1677ZM100.298 18.059L111.857 14.8425L112.542 17.2663L100.983 20.4829L100.298 18.059Z" fill="black"/>
<path d="M183.667 11.0492C183.878 9.90081 183.611 8.87803 182.866 7.98088C182.121 7.08372 181.069 6.42833 179.711 6.01471C178.718 5.71228 177.8 5.60807 176.956 5.70209C176.119 5.79833 175.406 6.0638 174.816 6.49852C174.233 6.93546 173.832 7.51123 173.611 8.22583C173.426 8.82376 173.409 9.38119 173.561 9.89814C173.722 10.41 173.985 10.8771 174.35 11.2993C174.717 11.7143 175.12 12.0885 175.56 12.422C176.003 12.7483 176.415 13.0294 176.797 13.2656L178.886 14.5719C179.423 14.9029 180.007 15.3123 180.639 15.8C181.279 16.29 181.855 16.8684 182.368 17.5352C182.89 18.1969 183.255 18.9544 183.462 19.8075C183.67 20.6605 183.611 21.6121 183.286 22.6621C182.912 23.8726 182.256 24.8696 181.319 25.6532C180.389 26.4391 179.228 26.9355 177.838 27.1424C176.455 27.3515 174.902 27.1937 173.179 26.6689C171.573 26.1796 170.262 25.4972 169.246 24.6214C168.238 23.7479 167.542 22.7458 167.156 21.6152C166.778 20.4867 166.735 19.2967 167.026 18.045L169.83 18.8989C169.641 19.767 169.71 20.5537 170.035 21.2591C170.369 21.9594 170.878 22.5612 171.561 23.0645C172.254 23.5628 173.046 23.9475 173.937 24.2188C174.974 24.5346 175.956 24.6504 176.885 24.5663C177.816 24.4749 178.616 24.1999 179.286 23.7415C179.957 23.2757 180.419 22.6345 180.671 21.8178C180.902 21.0741 180.881 20.4055 180.609 19.812C180.337 19.2186 179.907 18.6726 179.318 18.1741C178.729 17.6757 178.074 17.197 177.353 16.738L174.837 15.1099C173.24 14.0731 172.075 12.9323 171.341 11.6877C170.608 10.443 170.475 9.06593 170.941 7.55652C171.329 6.30233 172.007 5.31196 172.975 4.58542C173.952 3.85381 175.098 3.40482 176.411 3.23846C177.735 3.06703 179.112 3.19924 180.543 3.6351C181.989 4.0754 183.194 4.72565 184.158 5.58583C185.125 6.43871 185.799 7.41003 186.181 8.49977C186.57 9.59174 186.608 10.7084 186.295 11.8497L183.667 11.0492Z" fill="black"/>
<path d="M198.109 36.8043L195.619 35.1734L215.807 20.3674L218.259 21.9733L212.475 46.2136L209.985 44.5827L215.055 24.3092L214.902 24.2088L198.109 36.8043ZM204.101 29.7803L214.138 36.3543L212.743 38.4515L202.706 31.8775L204.101 29.7803Z" fill="black"/>
<path d="M224.719 57.9004L242.683 42.8311L244.524 44.9924L228.49 58.4429L235.559 66.7398L233.629 68.3585L224.719 57.9004Z" fill="black"/>
<path d="M242.377 84.5976L241.165 81.8784L266.142 80.3246L267.334 83.0019L249.365 100.285L248.153 97.5658L263.378 83.237L263.303 83.0696L242.377 84.5976ZM251.212 81.9225L256.094 92.8828L253.787 93.8945L248.905 82.9342L251.212 81.9225Z" fill="black"/>
<path d="M253.046 115.545L252.656 112.594L277.037 118.098L277.421 121.004L255.3 132.57L254.909 129.619L273.562 120.122L273.538 119.94L253.046 115.545ZM262.273 115.451L263.848 127.345L261.35 127.671L259.775 115.776L262.273 115.451Z" fill="black"/>
<path d="M275.51 148.941L278 149.327L275.264 166.699L272.775 166.313L273.922 159.029L253.24 155.823L253.682 153.018L274.364 156.224L275.51 148.941Z" fill="black"/>
<path d="M264.374 196.832L243.136 186.895L244.355 184.331L265.593 194.268L264.374 196.832Z" fill="black"/>
<path d="M207.435 230.641L219.939 250.476L212.975 254.8C211.587 255.661 210.292 256.133 209.089 256.214C207.891 256.303 206.819 256.083 205.873 255.556C204.931 255.036 204.155 254.291 203.545 253.323C203.007 252.471 202.716 251.672 202.671 250.928C202.619 250.187 202.738 249.503 203.027 248.874C203.31 248.249 203.688 247.682 204.161 247.173L204.039 246.979C203.405 247.319 202.658 247.486 201.797 247.481C200.937 247.476 200.071 247.241 199.2 246.775C198.33 246.31 197.564 245.554 196.905 244.508C196.278 243.514 195.941 242.479 195.895 241.403C195.848 240.327 196.168 239.252 196.854 238.18C197.54 237.107 198.668 236.084 200.237 235.109L207.435 230.641ZM206.366 234.269L201.58 237.24C200.004 238.218 199.077 239.216 198.798 240.234C198.517 241.262 198.651 242.212 199.201 243.083C199.624 243.755 200.187 244.268 200.888 244.623C201.594 244.984 202.373 245.139 203.224 245.086C204.08 245.04 204.942 244.748 205.811 244.208L210.713 241.165L206.366 234.269ZM212.032 243.257L207.558 246.035C206.831 246.486 206.266 247.034 205.861 247.681C205.45 248.331 205.236 249.021 205.218 249.751C205.193 250.485 205.401 251.201 205.84 251.898C206.39 252.769 207.161 253.32 208.153 253.548C209.149 253.783 210.309 253.49 211.631 252.669L216.184 249.843L212.032 243.257Z" fill="black"/>
<path d="M175.612 270.834L169.235 248.27L171.971 247.509L178.347 270.072L175.612 270.834Z" fill="black"/>
<path d="M143.133 252.207L142.845 275.653L140.006 275.618L140.263 254.691L129.364 254.559L129.395 252.041L143.133 252.207Z" fill="black"/>
<path d="M112.334 249.33L105.406 271.73L97.5639 269.342C96.0014 268.866 94.7961 268.204 93.9481 267.355C93.0978 266.514 92.5643 265.565 92.3475 264.51C92.1284 263.462 92.188 262.391 92.5263 261.297C92.824 260.334 93.2414 259.592 93.7786 259.069C94.3084 258.545 94.9071 258.184 95.5748 257.989C96.2352 257.791 96.9137 257.702 97.6104 257.723L97.6781 257.504C97.0053 257.252 96.3897 256.801 95.8314 256.152C95.273 255.503 94.8865 254.699 94.6718 253.74C94.4572 252.781 94.5325 251.711 94.8979 250.53C95.2452 249.407 95.8131 248.475 96.6016 247.734C97.3902 246.992 98.4169 246.527 99.6818 246.338C100.947 246.149 102.463 246.323 104.23 246.861L112.334 249.33ZM108.874 250.909L103.485 249.268C101.711 248.727 100.346 248.686 99.3888 249.145C98.4225 249.609 97.7871 250.333 97.4826 251.317C97.248 252.075 97.225 252.834 97.4135 253.594C97.5998 254.361 97.9909 255.046 98.5869 255.651C99.1807 256.262 99.9668 256.717 100.945 257.015L106.465 258.696L108.874 250.909ZM105.734 261.059L100.696 259.525C99.8785 259.276 99.0915 259.211 98.3351 259.332C97.5714 259.451 96.9059 259.743 96.3385 260.208C95.7638 260.671 95.3546 261.297 95.111 262.084C94.8065 263.069 94.8915 264.008 95.3658 264.902C95.8379 265.804 96.8187 266.482 98.3082 266.936L103.434 268.497L105.734 261.059Z" fill="black"/>
<path d="M80.2341 236.58L82.7243 238.211L62.5361 253.017L60.0842 251.411L65.8677 227.171L68.3579 228.802L63.2879 249.075L63.4412 249.175L80.2341 236.58ZM74.242 243.604L64.2047 237.03L65.5997 234.933L75.637 241.507L74.242 243.604Z" fill="black"/>
<path d="M33.8945 210.403C35.7891 208.814 37.716 207.78 39.6752 207.303C41.6343 206.825 43.493 206.864 45.2513 207.422C47.0095 207.979 48.5371 209.019 49.8339 210.541C51.1308 212.063 51.9098 213.731 52.1711 215.544C52.4323 217.357 52.1625 219.183 51.3616 221.02C50.5607 222.858 49.2129 224.571 47.3183 226.16C45.4236 227.75 43.4967 228.783 41.5376 229.261C39.5784 229.739 37.7197 229.699 35.9614 229.142C34.2032 228.585 32.6756 227.545 31.3788 226.023C30.082 224.5 29.3029 222.833 29.0417 221.019C28.7804 219.206 29.0502 217.381 29.8511 215.544C30.6521 213.706 31.9998 211.993 33.8945 210.403ZM35.6764 212.495C34.1209 213.8 33.0284 215.16 32.3988 216.574C31.7643 217.983 31.5459 219.357 31.7436 220.696C31.9364 222.028 32.4931 223.235 33.4138 224.316C34.3344 225.396 35.4433 226.145 36.7404 226.561C38.0325 226.971 39.4339 226.986 40.9446 226.606C42.4503 226.219 43.9809 225.374 45.5363 224.069C47.0918 222.764 48.1868 221.407 48.8213 219.998C49.4509 218.583 49.6693 217.21 49.4765 215.877C49.2788 214.539 48.7196 213.329 47.7989 212.248C46.8783 211.168 45.7719 210.422 44.4797 210.012C43.1826 209.595 41.7813 209.581 40.2756 209.967C38.7649 210.348 37.2319 211.19 35.6764 212.495Z" fill="black"/>
</svg>
