<svg width="1440" height="1149" viewBox="0 0 1440 1149" fill="none" xmlns="http://www.w3.org/2000/svg">
<path d="M416.207 -21.4464C418.551 -98.9545 336.432 -153.051 295.079 -170.411C238.333 -186.116 161.291 -219.887 -5.28054 -170.825C-171.852 -121.764 -195.684 91.0723 -139.206 259.449C-82.7283 427.826 39.6787 417.422 124.273 366.272C192.989 324.723 179.437 197.151 263.707 158.497C347.977 119.842 413.276 75.4388 416.207 -21.4464Z" fill="#B4A8E2"/>
<path d="M1119.55 929.379C1126.33 1014.12 1223.66 1062.67 1271.48 1076.36C1336.11 1086.29 1425.36 1113.34 1603.57 1038.84C1781.78 964.327 1782.37 729.439 1699.56 553.14C1616.76 376.842 1482.69 403.65 1395.36 470.071C1324.43 524.024 1354.84 661.294 1266.36 714.06C1177.88 766.826 1111.06 823.457 1119.55 929.379Z" fill="#B4A8E2"/>
</svg>
