<svg width="142" height="142" viewBox="0 0 142 142" fill="none" xmlns="http://www.w3.org/2000/svg">
<path d="M66.34 32.0897C67.0696 26.8791 74.597 26.8791 75.3266 32.0897C75.905 36.2205 81.2818 37.4477 83.5953 33.977C86.5134 29.5989 93.2953 32.8649 91.6919 37.8761C90.4207 41.8488 94.7326 45.2874 98.3228 43.1641C102.852 40.4857 107.545 46.3709 103.926 50.1901C101.057 53.2178 103.45 58.1867 107.606 57.8314C112.848 57.3833 114.523 64.7219 109.605 66.5927C105.707 68.0758 105.707 73.5909 109.605 75.074C114.523 76.9448 112.848 84.2834 107.606 83.8352C103.45 83.48 101.057 88.4489 103.926 91.4766C107.545 95.2958 102.852 101.181 98.3228 98.5026C94.7326 96.3793 90.4207 99.8179 91.6919 103.791C93.2953 108.802 86.5134 112.068 83.5953 107.69C81.2819 104.219 75.905 105.446 75.3266 109.577C74.597 114.788 67.0696 114.788 66.34 109.577C65.7616 105.446 60.3848 104.219 58.0714 107.69C55.1533 112.068 48.3713 108.802 49.9748 103.791C51.2459 99.8179 46.9341 96.3793 43.3439 98.5026C38.8151 101.181 34.1219 95.2958 37.7408 91.4766C40.6098 88.4489 38.2169 83.48 34.0609 83.8352C28.8186 84.2834 27.1436 76.9448 32.0612 75.074C35.9597 73.5909 35.9597 68.0758 32.0612 66.5927C27.1436 64.7219 28.8186 57.3833 34.0609 57.8314C38.2169 58.1867 40.6098 53.2178 37.7408 50.1901C34.1219 46.3709 38.8151 40.4857 43.3439 43.1641C46.9341 45.2874 51.2459 41.8488 49.9748 37.8761C48.3713 32.8649 55.1533 29.5989 58.0714 33.977C60.3848 37.4477 65.7616 36.2205 66.34 32.0897Z" fill="#FDFF0A"/>
<path d="M96.637 83.9678C97.1561 83.9961 97.6032 84.344 97.7578 84.8407C97.9428 85.4369 98.0332 86.0627 98.0332 86.6869C98.0332 90.1085 95.2362 92.906 91.8142 92.906C88.3926 92.906 85.5951 90.1085 85.5951 86.6869C85.5964 86.1623 85.6559 85.6336 85.788 85.1252C85.933 84.5753 86.4322 84.1936 87.0009 84.1978H95.544C95.7157 84.1978 95.8878 84.1528 96.049 84.0782C96.2332 83.994 96.4349 83.9565 96.637 83.9678ZM95.5441 86.6868H88.0847C88.0847 88.7635 89.7379 90.4168 91.8142 90.4168C93.8908 90.4168 95.5441 88.7635 95.5441 86.6868Z" fill="black"/>
<path d="M60.5448 86.6877C61.2214 86.6902 61.7722 87.2332 61.7847 87.9098C61.8081 89.5873 60.8739 90.9626 59.6902 91.7584C58.5064 92.5547 57.0835 92.9064 55.7219 92.9068C54.3595 92.9068 52.9016 92.5718 51.6799 91.7772C50.4582 90.9826 49.4708 89.5211 49.6683 87.7902C49.7404 87.1607 50.2746 86.686 50.9083 86.6877H60.5448ZM58.5973 89.1773H52.755C52.8941 89.3244 52.82 89.5489 53.0396 89.6919C53.7312 90.1419 54.8146 90.4177 55.7219 90.4177C56.6294 90.4173 57.6369 90.1494 58.3031 89.701C58.5019 89.5673 58.4573 89.3256 58.5973 89.1773Z" fill="black"/>
<path d="M58.2125 50.5952C60.2595 50.5952 61.9512 52.2868 61.9512 54.3339V64.2825C61.9512 66.3294 60.2596 68.0211 58.2125 68.0211H48.2636C46.2166 68.0211 44.5249 66.3295 44.5249 64.2825V54.3339C44.5249 52.2869 46.2165 50.5952 48.2636 50.5952H58.2125ZM58.2125 53.0848H48.2636C47.562 53.0848 47.0145 53.6318 47.0145 54.3339V64.2825C47.0145 64.9845 47.562 65.532 48.2636 65.532H58.2125C58.9141 65.532 59.4616 64.9845 59.4616 64.2825V54.3339C59.4616 53.6318 58.9141 53.0848 58.2125 53.0848Z" fill="black"/>
<path d="M91.815 51.8442C93.8624 51.8442 95.5449 53.5267 95.5449 55.5737V56.8233C95.5449 58.8703 93.8625 60.5528 91.815 60.5528H84.3468C83.9739 60.5532 83.6202 60.3862 83.3835 60.0978C83.1468 59.8095 83.0523 59.4304 83.1252 59.0645L84.3743 52.8455C84.4906 52.263 85.0022 51.8438 85.5959 51.8443L91.815 51.8442ZM91.815 54.3338H86.616L85.8718 58.0633H91.815C92.5171 58.0633 93.0554 57.5254 93.0554 56.8233V55.5737C93.0554 54.8721 92.5171 54.3338 91.815 54.3338Z" fill="black"/>
<path d="M55.7213 76.7295C60.9378 76.7295 65.3449 80.3136 66.5797 85.1626C66.8522 86.2342 66.4997 87.3196 65.8356 88.0375C65.1714 88.7558 64.2198 89.1767 63.1898 89.1767H48.2621C47.2326 89.1767 46.2718 88.7558 45.6076 88.0375C44.9434 87.3191 44.5997 86.2342 44.8726 85.1626C46.1071 80.3135 50.5049 76.7295 55.7213 76.7295ZM55.7213 79.219C51.6418 79.219 48.2373 82.0043 47.2791 85.7688C47.2137 86.0255 47.2678 86.1659 47.4353 86.3476C47.6032 86.5288 47.9174 86.6872 48.262 86.6872H63.1896C63.5346 86.6872 63.8396 86.5288 64.0071 86.3476C64.175 86.1659 64.2287 86.0347 64.1633 85.778C63.205 82.0135 59.8009 79.219 55.7213 79.219Z" fill="black"/>
<path d="M88.0848 58.0634C88.6698 58.0654 89.1744 58.4746 89.2977 59.0462L93.0272 76.473C93.0451 76.5576 93.0543 76.6438 93.0547 76.7301C93.0547 77.8709 92.541 78.8404 91.8698 79.9729C91.1985 81.1053 90.3089 82.3174 89.3344 83.4545C88.3598 84.5916 87.3082 85.6477 86.2844 86.4582C85.2607 87.2686 84.3503 87.9281 83.1061 87.9281H65.257C64.8332 87.9277 64.4387 87.7115 64.2103 87.3548C63.9816 86.9981 63.9503 86.5494 64.127 86.1644C64.1941 86.0198 64.2124 85.9332 64.1728 85.7786C63.2149 82.0141 59.8009 79.2196 55.7218 79.2196C54.5973 79.2196 53.5348 79.4358 52.5432 79.8258C52.1665 79.9742 51.7411 79.9296 51.4028 79.7067C51.0645 79.4838 50.8562 79.11 50.8441 78.705C50.7878 76.7751 51.4686 74.9189 52.1207 73.4968C52.7732 72.0744 53.4436 71.0623 53.4436 71.0623C53.6757 70.7165 54.0652 70.5099 54.4815 70.5111H69.4187C69.9866 70.5124 70.482 70.8978 70.622 71.4482L72.5052 78.9901C72.7232 79.8613 73.4902 80.4596 74.3885 80.4596H79.3672C79.9896 80.4596 81.4388 79.7479 82.5367 78.65C83.6341 77.5521 84.3462 76.1122 84.3462 75.4901V59.3134C84.345 58.9814 84.4762 58.663 84.7108 58.4285C84.9454 58.1939 85.2637 58.0626 85.5954 58.0639L88.0848 58.0634ZM87.0744 60.5529H86.8357V75.4901C86.8357 77.3567 85.682 79.0225 84.2912 80.4137C82.9 81.805 81.2338 82.9491 79.3672 82.9491H74.3885C72.361 82.9491 70.5811 81.5629 70.0894 79.5963L68.4449 73.0006H55.2164C55.0235 73.3102 54.7976 73.6256 54.3806 74.5347C54.0223 75.316 53.9114 76.2247 53.7194 77.1159C54.3898 76.9884 55.0135 76.7301 55.7218 76.7301C60.9383 76.7301 65.3453 80.3138 66.5802 85.1631C66.6052 85.2611 66.5381 85.3406 66.5527 85.4385H83.1058C83.1058 85.4385 83.8979 85.169 84.7408 84.5015C85.5837 83.834 86.5587 82.869 87.4507 81.8283C88.3428 80.7879 89.1556 79.6725 89.7289 78.705C90.2889 77.7601 90.5343 76.913 90.5464 76.7759L87.0744 60.5529Z" fill="black"/>
<path d="M66.9287 65.5319C68.9762 65.5319 70.6587 67.2143 70.6587 69.2614V71.751C70.6599 72.081 70.5299 72.398 70.2974 72.6322C70.0645 72.8668 69.7487 72.9989 69.4183 73.0001H51.9926C49.9456 73.0001 48.2627 71.3085 48.2627 69.2614C48.2627 67.2144 49.9455 65.5319 51.9926 65.5319L66.9287 65.5319ZM66.9287 68.021H51.9926C51.2905 68.021 50.7522 68.5594 50.7522 69.2614C50.7522 69.9635 51.2905 70.5106 51.9926 70.5106H68.1693V69.2614C68.1693 68.5594 67.6308 68.021 66.9287 68.021Z" fill="black"/>
<path d="M91.7226 74.929C91.8672 74.9319 92.0101 74.9598 92.1451 75.0115C95.4792 76.3122 98.0379 79.1539 98.9337 82.6729C99.2067 83.745 98.8629 84.83 98.1988 85.5483C97.5346 86.2666 96.5743 86.687 95.5442 86.687H85.5587C85.0262 86.6924 84.5491 86.3579 84.3729 85.855C84.1962 85.3525 84.3591 84.7933 84.7779 84.4642C86.0424 83.4542 87.5732 81.7951 88.7282 80.2109C89.3052 79.4189 89.7898 78.6414 90.1152 77.9972C90.4286 77.3764 90.5377 76.8827 90.5469 76.7752L90.4736 76.4265C90.3961 76.0544 90.4927 75.6673 90.7365 75.3756C90.9798 75.084 91.3431 74.9194 91.7226 74.929ZM92.4668 78.6952C92.4014 78.8352 92.411 78.9735 92.338 79.1177C91.9268 79.9326 91.3772 80.8059 90.7398 81.6809C90.0619 82.6109 89.1995 83.3429 88.3973 84.198H95.5443C95.8884 84.198 96.203 84.0396 96.3709 83.858C96.5388 83.6763 96.5921 83.5355 96.5271 83.2792C95.9926 81.1789 94.2204 79.8723 92.4668 78.6952Z" fill="black"/>
<path d="M80.6169 50.5952C81.2223 50.5977 81.7381 51.036 81.8385 51.6331L82.9135 58.0634H85.5955C85.926 58.0646 86.2422 58.1967 86.4747 58.4313C86.7072 58.6654 86.8372 58.9825 86.8359 59.3129C86.8334 59.9966 86.2797 60.5504 85.5955 60.5529H81.8569C81.2514 60.5504 80.7356 60.1121 80.6352 59.515L79.5603 53.0847H76.8782C76.194 53.0822 75.6404 52.5285 75.6378 51.8443C75.6366 51.5143 75.7666 51.1973 75.999 50.9627C76.2315 50.7285 76.5478 50.5965 76.8782 50.5952L80.6169 50.5952Z" fill="black"/>
<path d="M60.7011 55.5738C61.0332 55.5725 61.3515 55.7038 61.5861 55.9383C61.8207 56.1729 61.9519 56.4916 61.9507 56.8233C61.9494 57.1533 61.8173 57.4695 61.5828 57.702C61.3486 57.9345 61.0315 58.0645 60.7011 58.0633H55.7225C55.0383 58.0612 54.4846 57.507 54.4821 56.8233C54.4808 56.4929 54.6108 56.1758 54.8433 55.9417C55.0762 55.7075 55.3921 55.575 55.7225 55.5738L60.7011 55.5738ZM50.7526 55.5738C51.083 55.575 51.3988 55.7075 51.6317 55.9417C51.8642 56.1758 51.9942 56.4929 51.993 56.8233C51.9904 57.507 51.4367 58.0611 50.7526 58.0633H45.7739C45.4435 58.0645 45.1264 57.9345 44.8923 57.702C44.6577 57.4695 44.5256 57.1533 44.5244 56.8233C44.5231 56.4916 44.6544 56.1729 44.8889 55.9383C45.1235 55.7037 45.4418 55.5725 45.7739 55.5737L50.7526 55.5738Z" fill="black"/>
<path d="M53.233 53.0842C55.28 53.0842 56.9717 54.7758 56.9717 56.8228C56.9717 58.8699 55.2801 60.5524 53.233 60.5524C51.186 60.5524 49.5035 58.8699 49.5035 56.8228C49.5035 54.7758 51.1859 53.0842 53.233 53.0842ZM53.233 55.5733C52.5309 55.5733 51.993 56.1208 51.993 56.8228C51.993 57.5249 52.5309 58.0628 53.233 58.0628C53.9351 58.0628 54.4821 57.5249 54.4821 56.8228C54.4821 56.1208 53.9351 55.5733 53.233 55.5733Z" fill="black"/>
</svg>
