<svg width="142" height="143" viewBox="0 0 142 143" fill="none" xmlns="http://www.w3.org/2000/svg">
<path d="M66.34 32.7563C67.0696 27.5457 74.597 27.5457 75.3266 32.7563C75.905 36.8871 81.2818 38.1143 83.5953 34.6436C86.5134 30.2655 93.2953 33.5315 91.6919 38.5427C90.4207 42.5154 94.7326 45.954 98.3228 43.8307C102.852 41.1524 107.545 47.0375 103.926 50.8567C101.057 53.8844 103.45 58.8533 107.606 58.4981C112.848 58.0499 114.523 65.3885 109.605 67.2593C105.707 68.7424 105.707 74.2575 109.605 75.7406C114.523 77.6114 112.848 84.95 107.606 84.5019C103.45 84.1466 101.057 89.1155 103.926 92.1432C107.545 95.9624 102.852 101.848 98.3228 99.1692C94.7326 97.0459 90.4207 100.485 91.6919 104.457C93.2953 109.468 86.5134 112.734 83.5953 108.356C81.2819 104.886 75.905 106.113 75.3266 110.244C74.597 115.454 67.0696 115.454 66.34 110.244C65.7616 106.113 60.3848 104.886 58.0714 108.356C55.1533 112.734 48.3713 109.468 49.9748 104.457C51.2459 100.485 46.9341 97.0459 43.3439 99.1692C38.8151 101.848 34.1219 95.9624 37.7408 92.1432C40.6098 89.1155 38.2169 84.1466 34.0609 84.5019C28.8186 84.95 27.1436 77.6114 32.0612 75.7406C35.9597 74.2575 35.9597 68.7424 32.0612 67.2593C27.1436 65.3885 28.8186 58.0499 34.0609 58.4981C38.2169 58.8533 40.6098 53.8844 37.7408 50.8567C34.1219 47.0375 38.8151 41.1524 43.3439 43.8307C46.9341 45.954 51.2459 42.5154 49.9748 38.5427C48.3713 33.5315 55.1533 30.2655 58.0714 34.6436C60.3848 38.1143 65.7616 36.8871 66.34 32.7563Z" fill="#B4A8E2"/>
<path d="M70.5003 47C66.4683 47 63.1878 50.2899 63.1878 54.3333V56.7778H54.6564C54.0199 56.7778 53.4897 57.2695 53.4411 57.9062L51.0036 89.684C50.9777 90.0233 51.0937 90.3582 51.3242 90.6085C51.5555 90.8578 51.8795 91 52.2189 91H88.7817C89.1211 91 89.4452 90.8578 89.6758 90.6085C89.9063 90.3585 90.0223 90.0237 89.9964 89.684L87.5589 57.9062C87.511 57.2695 86.9808 56.7778 86.3443 56.7778H77.8129V54.3333C77.8129 50.2899 74.5324 47 70.5003 47ZM65.6253 54.3333C65.6253 51.6375 67.8122 49.4444 70.5003 49.4444C73.1885 49.4444 75.3754 51.6375 75.3754 54.3333V56.7778H65.6253V54.3333ZM85.216 59.2222L87.4658 88.5555H53.5355L55.7854 59.2222H63.188V62.8889C63.188 63.5641 63.7335 64.1111 64.4068 64.1111C65.0801 64.1111 65.6256 63.5641 65.6256 62.8889V59.2222H75.3756V62.8889C75.3756 63.5641 75.9211 64.1111 76.5944 64.1111C77.2677 64.1111 77.8132 63.5641 77.8132 62.8889V59.2222H85.216Z" fill="black"/>
</svg>
