<svg width="422" height="352" viewBox="0 0 422 352" fill="none" xmlns="http://www.w3.org/2000/svg">
<path d="M193.939 343.076C207.626 348.758 224.783 357.043 238.377 346.148L251.811 340.358C254.764 339.218 257.068 337.258 260.104 336.313C265.377 334.673 270.913 332.755 275.692 329.872C284.36 324.646 293.442 320.342 301.406 313.959L328.703 292.082L349.483 275.428C358.631 268.096 365.329 259.228 374.077 251.589C391.18 236.652 409.157 216.071 416.057 194.472C418.701 186.198 421.585 177.106 421.934 168.496C422.148 163.223 420.67 157.9 420.005 152.735C418.089 137.861 418.636 122.304 416.156 107.575C413.683 92.8859 409.684 79.476 402.955 66.1772C396.891 54.1907 390.932 40.8582 380.674 31.7736C369.731 22.082 356.136 15.2802 342.059 10.7436C336.402 8.92036 330.711 6.69831 324.812 5.61871C320.827 4.88932 316.85 4.63259 313.16 3.0234C297.749 -3.69765 285.602 6.95391 274.18 16.1083C271.047 18.6193 264.802 21.8645 263.49 25.6935C262.75 27.8537 260.61 28.8504 258.991 30.3173C255.567 33.4207 254.767 38.5808 252.539 42.4451C248.707 49.089 246.649 58.9146 247.611 66.4161C248.807 75.7358 248.842 85.2569 250.377 94.5714C250.528 95.4868 252.724 104.119 251.403 104.382C250.529 104.557 247.512 99.825 247.063 99.2639C241.256 92.0181 234.007 87.5435 226.217 82.6008C211.424 73.2144 201.076 58.4482 183.277 53.7256C176.307 51.8763 168.243 51.6868 160.882 53.0089C155.363 54.0003 150.221 53.3898 144.786 55.1063C139.249 56.8547 136.116 57.5296 131.427 61.2876C127.124 64.7363 124.026 69.2558 119.859 72.5952C115.938 75.7378 114.584 78.8402 112.311 83.282C110.625 86.5778 109.121 90.0387 108.55 93.6489C108.089 96.5669 108.829 99.0753 108.525 101.927C107.682 109.836 110.125 117.519 111.971 125.069C113.378 130.823 114.56 136.905 117.408 142.091C118.27 143.661 125.302 161.678 122.356 161.767C120.389 161.826 115.901 155.742 114.682 154.343C111.208 150.357 108.016 146.1 104.71 141.974C95.7717 130.822 85.99 119.536 74.9098 110.429C69.3111 105.828 55.0686 97.8723 47.2758 101.469C41.3019 104.226 33.659 105.029 28.4827 109.177C24.9865 111.98 21.4188 114.715 17.984 117.592C11.8358 122.741 2.72506 129.841 1.15033 137.983C-0.471832 146.37 0.789231 156.014 1.96215 164.367C2.55765 168.608 4.9971 172.287 6.51989 176.212C7.12807 177.779 6.56297 179.598 7.52323 180.95C9.91046 184.314 12.7263 187.443 15.3066 190.662C30.848 210.054 46.9974 228.869 62.5479 248.272L62.6673 248.421C71.624 259.597 82.0118 272.559 95.8512 278.254C102.185 280.86 108.803 283.428 114.198 287.644C118.254 290.814 121.293 294.488 125.154 297.754C136.715 307.532 147.481 317.656 159.94 326.321C169.924 333.265 182.512 338.331 193.939 343.076Z" fill="#B4A8E2"/>
</svg>
