<svg width="158" height="131" viewBox="0 0 158 131" fill="none" xmlns="http://www.w3.org/2000/svg">
<path d="M72.588 127.841C77.6936 129.96 84.0936 133.051 89.1648 128.987L94.1762 126.827C95.2778 126.401 96.137 125.671 97.2697 125.318C99.2367 124.706 101.302 123.99 103.085 122.915C106.318 120.966 109.706 119.36 112.677 116.979L122.859 108.818L130.611 102.606C134.023 99.8709 136.522 96.5628 139.785 93.713C146.165 88.1412 152.871 80.4636 155.445 72.4066C156.431 69.3202 157.507 65.9286 157.638 62.7166C157.718 60.7496 157.166 58.7639 156.918 56.8373C156.203 51.2889 156.407 45.4857 155.482 39.9912C154.56 34.5116 153.068 29.5093 150.558 24.5484C148.296 20.0771 146.073 15.1036 142.246 11.7147C138.164 8.09945 133.093 5.56215 127.842 3.86985C125.731 3.18973 123.608 2.36083 121.408 1.95811C119.921 1.68602 118.438 1.59026 117.061 0.989977C111.313 -1.5172 106.781 2.45618 102.52 5.87106C101.352 6.80775 99.022 8.01832 98.5328 9.44667C98.2568 10.2525 97.4583 10.6243 96.8545 11.1715C95.5771 12.3292 95.2788 14.2541 94.4476 15.6956C93.0184 18.174 92.2504 21.8392 92.6094 24.6375C93.0554 28.1141 93.0684 31.6658 93.6413 35.1404C93.6976 35.4818 94.5166 38.7019 94.0238 38.8002C93.6978 38.8653 92.5726 37.1001 92.4048 36.8908C90.2386 34.1879 87.5345 32.5187 84.6287 30.6749C79.1105 27.1735 75.2504 21.6652 68.6105 19.9035C66.0105 19.2137 63.0027 19.143 60.2566 19.6362C58.1977 20.006 56.2799 19.7783 54.2522 20.4186C52.1869 21.0708 51.0183 21.3226 49.2691 22.7244C47.6639 24.0109 46.5079 25.6968 44.9536 26.9426C43.4909 28.1148 42.986 29.2721 42.1381 30.9291C41.509 32.1585 40.9482 33.4495 40.7351 34.7963C40.5629 35.8848 40.8392 36.8205 40.7258 37.8841C40.4113 40.8348 41.3227 43.7008 42.0111 46.517C42.5359 48.6636 42.9771 50.9323 44.0393 52.8667C44.3611 53.4526 46.984 60.1733 45.8852 60.2064C45.1512 60.2286 43.4772 57.9589 43.0225 57.4371C41.7267 55.9501 40.5359 54.3621 39.3025 52.8231C35.9683 48.6629 32.3194 44.453 28.1861 41.0558C26.0977 39.3393 20.7848 36.3717 17.8778 37.7133C15.6493 38.7417 12.7983 39.0414 10.8673 40.5889C9.56312 41.6342 8.23226 42.6545 6.95098 43.7277C4.65751 45.6486 1.25889 48.2972 0.671464 51.3343C0.0663448 54.4629 0.536763 58.0605 0.974299 61.1766C1.19644 62.7586 2.10644 64.1309 2.67449 65.5949C2.90136 66.1796 2.69056 66.8579 3.04876 67.3626C3.93928 68.6172 4.98968 69.7844 5.95221 70.9854C11.7497 78.2192 17.7739 85.2378 23.5748 92.4759L23.6193 92.5315C26.9605 96.7005 30.8354 101.536 35.998 103.66C38.3608 104.632 40.8295 105.59 42.8419 107.163C44.3549 108.345 45.4885 109.716 46.929 110.934C51.2416 114.582 55.2577 118.358 59.9052 121.591C63.6294 124.181 68.3251 126.071 72.588 127.841Z" fill="#B4A8E2"/>
</svg>
